<?xml version="1.0" standalone="no"?>
<!DOCTYPE svg PUBLIC "-//W3C//DTD SVG 1.1//EN" "http://www.w3.org/Graphics/SVG/1.1/DTD/svg11.dtd" >
<svg xmlns="http://www.w3.org/2000/svg">
<metadata>Generated by IcoMoon</metadata>
<defs>
<font id="HEicon" horiz-adv-x="1024">
<font-face units-per-em="1024" ascent="960" descent="-64" />
<missing-glyph horiz-adv-x="1024" />
<glyph unicode="&#x20;" horiz-adv-x="512" d="" />
<glyph unicode="&#xe501;" glyph-name="expenseDental" d="M311.512-60.766c-36.648 0-65.752 17.246-77.608 45.272-48.505 118.568-34.493 210.189-21.558 289.954 14.013 92.699 26.947 172.463-47.427 297.499-67.907 114.257-80.842 225.28-35.571 305.044 29.103 51.739 80.842 82.998 137.971 82.998 77.608 0 115.335-17.246 148.749-31.259 26.947-11.857 48.505-21.558 97.011-21.558 49.583 0 70.063 9.701 97.011 21.558 33.415 14.013 71.141 31.259 148.749 31.259 57.128 0 108.867-31.259 139.048-82.998 45.272-79.764 32.337-190.787-36.648-305.044-74.375-125.036-62.518-204.8-47.427-297.499 11.857-76.531 25.869-163.84-16.168-275.941-11.857-32.337-44.194-52.817-81.92-52.817v0c-43.116 0-77.608 26.947-84.076 65.752-39.882 251.149-94.855 316.901-118.568 316.901-20.48 0-81.92-59.284-120.724-330.914-5.389-34.493-37.726-58.206-80.842-58.206zM513.078 425.364c97.011 0 163.84-112.101 206.956-351.394 17.246 67.907 8.623 122.88-2.156 185.398-15.091 97.011-32.337 206.956 60.362 362.173 49.583 81.92 62.518 159.528 35.571 208.034-11.857 21.558-31.259 33.415-53.895 33.415-57.128 0-80.842-10.779-108.867-22.636-31.259-14.013-66.829-30.181-136.893-30.181s-105.634 16.168-136.893 30.181c-28.025 11.857-52.817 22.636-109.945 22.636-22.636 0-42.038-11.857-53.895-33.415-26.947-48.505-14.013-126.114 34.493-208.034 92.699-155.217 75.453-265.162 60.362-362.173-9.701-61.44-18.324-117.491-2.156-184.32 42.038 236.059 109.945 350.316 206.956 350.316zM717.878 777.836c0 0-103.478-44.194-204.8-44.194s-204.8 44.194-204.8 44.194 92.699-128.269 204.8-128.269 204.8 128.269 204.8 128.269z" />
<glyph unicode="&#xe502;" glyph-name="expenseMedical" d="M634.88 878.080v-307.2h307.2v-245.76h-307.2v-307.2h-245.76v307.2h-307.2v245.76h307.2v307.2h245.76zM716.8 960h-409.6v-307.2h-307.2v-409.6h307.2v-307.2h409.6v307.2h307.2v409.6h-307.2v307.2z" />
<glyph unicode="&#xe503;" glyph-name="expenseRX" d="M234.354-64c-129.299 0-234.354 105.055-234.354 234.354 0 63.495 24.244 122.372 69.267 166.241l236.663 236.663 73.885-73.885-213.574-213.574c-28.861-28.861-49.641-51.95-60.032-92.356-10.39-41.56-2.309-79.657 35.788-115.445 43.869-39.251 78.503-42.715 115.445-36.943 48.487 8.081 62.34 31.17 91.202 60.032l213.574 213.574 73.885-73.885-235.508-235.508c-43.869-45.024-102.746-69.267-166.241-69.267zM356.726 624.054l266.679 266.679c43.869 43.869 102.746 69.267 166.241 69.267 62.34 0 121.218-24.244 166.241-69.267 43.869-43.869 69.267-102.746 68.113-166.241 0-62.34-24.244-121.218-69.267-166.241l-266.679-265.524-331.328 331.328zM573.763 594.038l148.924 148.924c0 0 35.788 38.097 4.618 68.113s-69.267-6.927-69.267-6.927l-148.924-148.924c0 0-38.097-36.943-6.927-66.958s71.576 5.772 71.576 5.772z" />
<glyph unicode="&#xe504;" glyph-name="expenseVision" d="M1015.387 472.882c-9.57 11.484-226.811 290.931-503.387 290.931s-494.774-279.447-503.387-290.931c-10.527-14.355-10.527-33.495 0-47.85 9.57-11.484 226.811-290.931 503.387-290.931s494.774 279.447 503.387 290.931c10.527 14.355 10.527 33.495 0 47.85zM747.424 448.957c0-121.54-92.83-222.026-211.499-234.467-8.613-0.957-16.269-0.957-24.882-0.957s-16.269 0.957-24.882 0.957c-118.669 12.441-211.499 112.927-211.499 234.467s92.83 222.026 211.499 234.467c8.613 0.957 16.269 0.957 24.882 0.957s16.269-0.957 24.882-0.957c118.669-12.441 211.499-112.927 211.499-234.467zM90.916 448.957c24.882 27.753 70.819 76.561 131.11 121.54-16.269-37.323-24.882-78.475-24.882-121.54s8.613-84.217 24.882-121.54c-60.292 45.936-106.228 93.787-131.11 121.54zM801.974 327.417c16.269 37.323 24.882 78.475 24.882 121.54s-8.613 84.217-24.882 121.54c60.292-45.936 106.228-93.787 130.153-121.54-23.925-27.753-69.862-76.561-130.153-121.54zM656.508 476.71c1.914-8.613 2.871-18.183 2.871-27.753 0-81.346-66.034-147.379-147.379-147.379s-147.379 66.034-147.379 147.379c0 81.346 66.034 147.379 147.379 147.379 9.57 0 18.183-0.957 27.753-2.871-44.022-9.57-76.561-48.807-76.561-95.701 0-54.55 44.022-98.572 98.572-98.572 45.936 0.957 85.174 33.495 94.744 77.518z" />
<glyph unicode="&#xe505;" glyph-name="reimbursable" d="M63.546 157.14l357.311-220.051v432.84zM184.102 97.952v110.752h405.243v231.671c-31.955 5.447-63.183 11.983-93.685 20.335-30.502 7.989-57.736 19.972-81.702 35.586s-43.211 35.949-58.099 60.641c-14.525 24.692-21.787 56.284-21.787 94.774 0 31.955 6.173 60.641 18.882 86.786 12.709 25.782 30.139 48.295 52.652 67.177s49.384 34.133 80.613 46.116c31.228 11.983 65.725 19.609 102.763 23.603v84.607h107.121v-81.702c44.301-2.179 85.333-6.536 122.735-13.072s71.898-14.888 102.4-25.055v-112.567c-34.133 10.167-68.993 19.245-105.305 26.871s-76.255 12.346-119.83 14.525v-229.492c32.318-5.81 64.272-13.072 95.864-21.424s59.915-20.335 84.97-35.586c25.055-15.251 45.39-35.223 60.641-59.915s23.24-55.921 23.24-94.411c0-30.865-6.173-58.826-18.519-83.881s-30.139-46.843-53.379-65.725c-23.24-18.519-51.2-34.133-83.518-46.116s-68.993-21.061-109.299-26.508v-87.512h-107.121v80.976l-404.879-1.452zM461.163 656.794c0-28.687 10.53-50.474 31.228-66.088 20.698-15.251 53.016-27.234 96.953-35.223v209.884c-85.696-10.53-128.182-46.843-128.182-108.573zM833.725 327.081c0 15.614-3.268 28.687-9.804 39.217s-15.977 19.609-27.96 27.234c-11.983 7.626-26.508 13.799-43.211 18.882s-35.586 9.441-56.647 13.435v-209.884c18.882 3.268 36.675 7.626 53.379 13.072s31.228 12.709 43.938 21.424c12.346 9.078 22.15 19.609 29.413 31.955s10.894 27.234 10.894 44.664z" />
<glyph unicode="&#xe506;" glyph-name="claimDetails" d="M292.864 671.232c-84.992-84.992-88.064-220.16-7.168-300.032 80.896-80.896 216.064-77.824 300.032 7.168 84.992 84.992 88.064 220.16 7.168 300.032-80.896 80.896-215.040 77.824-300.032-7.168zM387.072 628.224c-82.944-39.936-101.376-134.144-106.496-105.472 15.36 118.784 148.48 183.296 257.024 142.336 19.456-11.264-59.392 7.168-150.528-36.864zM679.936 253.44l30.72 30.72c17.408 17.408 46.080 17.408 63.488 0l157.696-131.072c58.368 82.944 93.184 184.32 93.184 293.888 0 281.6-228.352 509.952-509.952 509.952s-509.952-228.352-509.952-509.952 228.352-509.952 509.952-509.952c114.688 0 221.184 37.888 306.176 102.4l-141.312 151.552c-17.408 17.408-17.408 45.056 0 62.464zM222.208 307.712c-115.712 115.712-112.64 307.2 7.168 427.008s311.296 122.88 427.008 7.168c115.712-115.712 112.64-307.2-7.168-427.008s-311.296-122.88-427.008-7.168z" />
<glyph unicode="&#xe507;" glyph-name="claimRevise" d="M620.544 403.968l3.072-45.056 335.872 335.872c-15.36 27.648-32.768 54.272-53.248 78.848l-343.040-343.040 57.344-26.624zM253.952 174.592l54.272 345.088 401.408 401.408c-61.44 25.6-128 39.936-198.656 39.936-282.624 0-512-229.376-512-512s229.376-512 512-512 512 229.376 512 512c0 60.416-10.24 118.784-29.696 173.056l-394.24-393.216-345.088-54.272zM492.544 532.992l19.456-48.128 343.040 343.040c-23.552 21.504-48.128 39.936-74.752 56.32l-346.112-344.064 58.368-7.168zM483.328 404.992l-30.72 75.776-68.608 9.216-5.12-6.144-21.504-132.096 73.728-73.728 132.096 21.504 7.168 7.168-4.096 60.416z" />
<glyph unicode="&#xe508;" glyph-name="claimResolve" d="M938.742 730.841l-388.398-631.993h-96.536l-301.787 373.061h156.983l158.788-148.863 382.985 509.293c-90.22 79.394-208.409 127.662-338.326 127.662-283.292 0-512.451-229.159-512.451-512s229.159-512 512-512 512 229.159 512 512c0 104.656-31.126 201.642-85.258 282.841z" />
<glyph unicode="&#xe509;" glyph-name="secure" d="M825.344 129.536h-624.64c-41.984 0-76.8 34.816-76.8 76.8v0c0 41.984 34.816 76.8 76.8 76.8h624.64c41.984 0 76.8-34.816 76.8-76.8v0c0-41.984-34.816-76.8-76.8-76.8zM825.344 320h-624.64c-43.008 0-77.824 34.816-77.824 76.8v0c0 41.984 34.816 76.8 76.8 76.8h624.64c41.984 0 76.8-34.816 76.8-76.8v0c1.024-41.984-33.792-76.8-75.776-76.8zM825.344-64h-624.64c-43.008 0-77.824 34.816-77.824 76.8v0c0 43.008 34.816 76.8 76.8 76.8h624.64c41.984 0 76.8-34.816 76.8-76.8v0c1.024-41.984-33.792-76.8-75.776-76.8zM324.608 684.544c0 96.256 77.824 174.080 174.080 174.080h25.6c96.256 0 174.080-77.824 174.080-174.080v-165.888h101.376v165.888c1.024 151.552-122.88 275.456-274.432 275.456h-25.6c-152.576 0-276.48-123.904-276.48-275.456v-165.888h101.376v165.888z" />
<glyph unicode="&#xe510;" glyph-name="save" d="M511.959 960c-282.773 0-512.041-229.268-512.041-512.041s229.268-512.041 512.041-512.041 512.041 229.268 512.041 512.041-229.268 512.041-512.041 512.041zM558.868 135.755v-104.865h-99.341v99.341c-71.724 5.524-137.924 22.094-176.589 44.106l33.141 121.353c44.106-22.094 104.865-44.106 171.065-44.106 60.677 0 99.341 27.618 99.341 66.2s-33.141 60.677-110.389 88.294c-104.865 38.665-182.112 88.294-182.112 187.636 0 88.294 60.677 160.018 171.065 182.112v99.341h99.341v-93.818c71.724 0 115.83-16.571 148.971-33.141l-27.618-115.83c-27.618 11.047-77.247 33.141-148.971 33.141-66.2 0-88.294-27.618-88.294-55.153 0-33.141 33.141-55.153 121.353-88.294v0c126.877-44.106 171.065-99.341 171.065-198.6 0.082-88.459-66.118-165.706-182.030-187.718z" />
<glyph unicode="&#xe600;" glyph-name="transactionHistory" horiz-adv-x="1148" d="M593.92 494.080c-10.24 5.12-20.48 5.12-30.72 0-40.96 40.96-133.12 138.24-138.24 133.12-10.24-5.12 61.44-128 87.040-174.080-5.12-20.48-5.12-40.96 10.24-56.32 20.48-30.72 61.44-35.84 92.16-15.36 15.36 10.24 25.6 30.72 25.6 51.2 35.84 35.84 250.88 204.8 245.76 215.040-10.24 5.12-245.76-133.12-291.84-153.6zM184.32 596.48c61.44 153.6 215.040 261.12 384 261.12 25.6 0 51.2 0 76.8-5.12 128-25.6 240.64-112.64 296.96-230.4 10.24-15.36 15.36-35.84 20.48-56.32l81.92 71.68c-5.12 10.24-5.12 15.36-10.24 25.6-71.68 148.48-204.8 256-368.64 286.72-30.72 5.12-61.44 10.24-97.28 10.24-215.040 0-404.48-133.12-476.16-332.8l-92.16 35.84 51.2-286.72 220.16 189.44-87.040 30.72zM1095.68 550.4l-220.16-189.44 92.16-30.72c-51.2-174.080-209.92-291.84-394.24-291.84-25.6 0-51.2 0-76.8 5.12-107.52 20.48-199.68 81.92-261.12 174.080-25.6 40.96-46.080 87.040-56.32 133.12l-81.92-71.68c15.36-40.96 35.84-81.92 56.32-117.76 76.8-112.64 194.56-189.44 327.68-215.040 30.72-5.12 66.56-10.24 97.28-10.24 225.28 0 419.84 148.48 486.4 358.4l92.16-30.72-61.44 286.72z" />
<glyph unicode="&#xe601;" glyph-name="requestReimbursement" horiz-adv-x="1144" d="M944.466 716.428c69.592 0 124.272 54.68 124.272 124.272s-59.65 119.302-124.272 119.302c-69.592 0-124.272-54.68-124.272-124.272 0-64.62 54.68-119.3 124.272-119.3zM919.612 274.020c69.592 0 124.272 54.68 124.272 124.272s-54.68 124.272-124.272 124.272c-69.592 0-124.272-54.68-124.272-124.272s59.65-124.272 124.272-124.272zM651.184 448c69.592 0 124.272 54.68 124.272 124.272s-54.68 124.272-124.272 124.272c-69.592 0-124.272-54.68-124.272-124.272s59.65-124.272 124.272-124.272zM1019.028 209.398c-154.096-44.738-303.222-79.534-347.962-84.504-39.768-4.972-213.748 109.36-238.602 124.272 9.942 34.796 29.824 29.826 64.62 14.914 39.768-19.884 124.272-69.592 149.126-79.534 54.68-29.826 144.154 54.68 44.738 119.302-79.534 54.68-173.98 134.214-268.428 159.068-49.71 9.942-178.95-14.914-218.718-29.826-89.476-39.768-203.806-59.65-203.806-59.65v-357.904l238.602-9.942c0 0 328.078-79.534 407.612-74.564s308.194 84.504 437.438 144.154c104.388 54.68 59.65 169.010-64.62 134.214z" />
<glyph unicode="&#xe602;" glyph-name="reimbursementAccountDetail" horiz-adv-x="1540" d="M1171.242 431.268l-73.622-455.11 441.726 93.698-93.7 93.698c80.314 120.472 113.778 274.404 73.622 428.34-53.542 194.092-207.478 334.64-394.876 374.798l-6.692-20.078c107.086-46.85 194.092-140.548 227.556-261.020 33.464-127.164 6.692-254.326-66.928-348.026l-107.086 93.698zM368.106 504.89l73.62 455.11-441.726-93.698 93.698-93.7c-80.314-113.778-113.778-274.404-73.62-421.646 53.542-194.092 207.478-334.64 394.876-374.798l6.692 20.078c-107.084 46.85-194.092 140.548-227.556 261.020-33.464 127.164 0 254.326 73.622 348.026l100.392-100.392zM836.6 524.966c-107.086 40.158-147.242 66.928-147.242 107.084 0 33.464 26.77 66.928 107.086 66.928 87.006 0 147.242-26.772 180.706-40.158l33.464 140.548c-40.158 20.078-93.698 40.158-180.706 40.158v113.778h-120.472v-120.472c-133.856-26.77-207.476-113.778-207.476-220.864 0-120.472 93.698-180.706 220.864-227.556 93.698-33.464 133.856-60.236 133.856-107.086s-46.85-80.314-120.472-80.314c-80.314 0-153.934 26.77-207.476 53.542l-40.156-147.242c46.85-26.77 127.162-46.85 214.17-53.542v-120.472h120.472v127.164c140.548 26.77 220.864 120.472 220.864 227.556 0 120.472-53.542 187.4-207.476 240.942z" />
<glyph unicode="&#xe603;" glyph-name="planInfo" horiz-adv-x="784" d="M716.8 960h-517.12l-199.68-199.68v-757.76c0-35.84 30.72-66.56 66.56-66.56h650.24c35.84 0 66.56 30.72 66.56 66.56v890.88c0 35.84-30.72 66.56-66.56 66.56zM732.16 2.56c0-5.12-5.12-10.24-10.24-10.24h-655.36c-5.12 0-10.24 5.12-10.24 10.24v732.16h102.4c35.84 0 66.56 30.72 66.56 66.56v102.4h491.52c5.12 0 10.24-5.12 10.24-10.24v-890.88zM143.36 453.12h512v-46.080h-512v46.080zM143.36 540.16h512v-46.080h-512v46.080zM404.48 627.2h250.88v-46.080h-250.88v46.080zM404.48 714.24h250.88v-46.080h-250.88v46.080zM143.36 366.080h512v-46.080h-512v46.080zM143.36 279.040h512v-46.080h-512v46.080zM143.36 192h512v-46.080h-512v46.080z" />
<glyph unicode="&#xe604;" glyph-name="phone" d="M1024 238.080c-81.92 61.44-220.16 107.52-317.44 102.4-25.6-25.6-76.8-87.040-92.16-122.88-56.32 15.36-128 76.8-194.56 138.24s-122.88 133.12-138.24 194.56c30.72 15.36 97.28 66.56 122.88 92.16 5.12 97.28-40.96 230.4-102.4 317.44-61.44 5.12-199.68 0-296.96-51.2-25.6-128 10.24-389.12 286.72-675.84 286.72-276.48 547.84-312.32 675.84-286.72 51.2 92.16 61.44 230.4 56.32 291.84z" />
<glyph unicode="&#xe605;" glyph-name="payments" horiz-adv-x="1758" d="M1749.97 325.73c-84.060 183.404-168.118 366.806-252.18 542.568-15.284 38.21-68.776 76.418-106.984 84.060-519.642 61.134-817.672-382.090-1337.314-328.596-45.85 7.642-61.134-22.924-45.85-61.134 84.060-183.402 168.118-366.806 252.178-542.568 15.284-38.21 68.776-76.418 106.986-84.060 519.642-53.492 817.672 389.73 1337.314 328.596 45.852 0 61.134 22.924 45.852 61.134zM993.432 195.822c-129.91-61.134-298.030 0-359.164 137.552-68.776 137.552 0 298.030 129.91 359.164s298.030 0 359.164-137.552c68.776-137.552 0-290.388-129.91-359.164zM947.582 493.85c-15.284 7.642-38.208 7.642-68.776 7.642h-7.642l-30.568 68.776c0 0 7.642 0 7.642 0 7.642 0 15.284-7.642 30.568-7.642l22.924 38.21c-30.568 15.284-53.494 22.924-84.060 15.284l-22.924 53.494-30.568-15.284 22.924-53.492c-7.642-15.284-22.924-30.568-30.568-45.85-7.642-22.926-7.642-38.208 0-61.134 15.284-30.568 45.85-45.85 91.702-38.21h15.284l45.85-91.7c-15.284-7.642-30.568-7.642-38.21 0-7.642 0-15.284 15.284-22.924 30.568l-38.21-30.568c15.284-22.924 38.21-38.21 61.134-45.85s45.85 0 68.776 7.642l15.284-53.494 30.568 15.284-22.924 53.494c15.284 7.642 30.568 22.924 38.21 38.21 7.642 22.924 7.642 45.85 0 76.418-22.924 15.284-38.21 30.568-53.494 38.21zM802.388 509.134c-7.642 7.642-7.642 15.284 0 30.568 0 7.642 7.642 15.284 15.284 15.284l30.568-61.134c-22.924 0-38.21 7.642-45.85 15.284zM947.582 394.506c0-7.642-7.642-7.642-7.642-15.284l-38.208 76.418c0 0 7.642 0 7.642 0 7.642 0 15.284 0 15.284-7.642 7.642 0 7.642-7.642 15.284-7.642 0 0 7.642-7.642 7.642-15.284s0-22.924 0-30.568z" />
<glyph unicode="&#xe606;" glyph-name="messages" d="M966.122 621.634c17.808 13.356 35.616 26.712 35.616 26.712s0-17.808 0-44.522v-449.67c0-22.26-17.808-44.522-44.522-44.522h-903.792c-22.26 0-44.522 22.26-44.522 44.522v449.67c0 22.26 0 44.522 0 44.522s17.81-13.356 35.616-26.712l178.086-124.662c17.808-13.356 53.426-35.618 71.234-53.426l173.634-124.66c17.81-13.356 53.426-13.356 71.234 0l173.634 124.662c17.808 13.356 53.426 35.618 71.236 53.426l182.538 124.662zM53.426 741.842c-22.26 0-26.714-8.904-8.904-22.26l178.086-124.66c17.808-13.358 53.426-35.618 71.236-53.426l173.634-124.66c17.81-13.356 53.426-13.356 71.234 0l173.634 124.662c17.808 13.356 53.426 35.616 71.236 53.426l178.086 124.662c17.808 13.356 17.808 26.712-8.904 26.712h-405.148c-26.712 0-66.784 0-89.044 0l-405.148-4.452z" />
<glyph unicode="&#xe607;" glyph-name="menu" horiz-adv-x="1168" d="M0 960h1168.046v-191.11h-1168.046v191.11zM0 550.684h1168.046v-191.108h-1168.046v191.11zM0 127.11h1168.046v-191.11h-1168.046v191.11z" />
<glyph unicode="&#xe608;" glyph-name="makeContribution" horiz-adv-x="1540" d="M1177.934 712.366c-73.622 60.236-321.254 207.478-435.034 247.634-87.006 26.77-327.948-93.698-475.19-147.242-73.62 13.386-153.936 40.156-267.712 66.928v-475.19c87.008 0 174.014-60.236 294.484-140.548 127.164-80.314 207.476-80.314 327.948-73.62 53.542 0 107.086 6.692 160.628 0 53.542-147.242 194.092-254.326 361.412-254.326 214.17 0 388.182 174.014 388.182 388.182 6.692 200.784-153.934 368.106-354.72 388.182zM776.366 431.268c-100.392 33.464-147.242 113.778-127.164 133.856 60.236 66.928 160.626 60.236 234.248 46.85-46.85-53.542-87.008-113.778-107.086-180.706zM1151.164 56.472c-87.008 0-167.32 40.158-214.17 107.086 93.698-6.692 194.092 26.77 160.628 133.856-20.078 66.928-113.778 100.392-200.784 113.778 33.464 107.086 133.856 187.4 254.326 187.4 147.242 0 267.712-120.472 267.712-267.712 0-153.936-120.472-274.404-267.712-274.404z" />
<glyph unicode="&#xe609;" glyph-name="investments" horiz-adv-x="1142" d="M61.44 171.52v-235.52h266.24v435.2l-20.48 20.48-245.76-220.16zM409.6 294.4v-358.4h266.24v389.12l-153.6-143.36-112.64 112.64zM1085.44 954.88l-153.6-40.96c-46.080-10.24-61.44-35.84-40.96-56.32l35.84-35.84-399.36-373.76-215.040 209.92-312.32-281.6 61.44-71.68 245.76 220.16 215.040-215.040 471.040 445.44c0 0 20.48-20.48 40.96-40.96s51.2-5.12 61.44 35.84l40.96 153.6c10.24 40.96-10.24 66.56-51.2 51.2zM757.76 396.8v-460.8h266.24v675.84l-15.36 20.48-250.88-235.52z" />
<glyph unicode="&#xe60a;" glyph-name="home" horiz-adv-x="1422" d="M1203.2 435.2v-499.2h-352v390.4h-281.6v-390.4h-358.4v505.6l-211.2 6.4 742.4 512 678.4-512-217.6-12.8z" />
<glyph unicode="&#xe60b;" glyph-name="expanded" d="M0 355.84l81.92 71.68 512-419.84-81.92-71.68zM512-64l-81.92 71.68 512 419.84 81.92-71.68zM0 888.32l81.92 71.68 512-419.84-81.92-71.68zM512 468.48l-81.92 71.68 512 419.84 81.92-71.68z" />
<glyph unicode="&#xe60c;" glyph-name="documentation" horiz-adv-x="476" d="M0 724.48v-353.28c0 0 0 0 0 0v0-261.12c0-46.080 20.48-92.16 51.2-122.88s76.8-51.2 122.88-51.2c46.080 0 92.16 20.48 122.88 51.2s51.2 76.8 51.2 122.88v583.68c0 30.72-15.36 61.44-35.84 81.92v0c-20.48 20.48-51.2 35.84-81.92 35.84s-61.44-15.36-81.92-35.84c-20.48-20.48-35.84-51.2-35.84-81.92v-527.36c0-20.48 15.36-35.84 35.84-35.84s35.84 15.36 35.84 35.84v527.36c0 10.24 5.12 25.6 15.36 30.72 10.24 10.24 20.48 15.36 30.72 15.36s25.6-5.12 30.72-15.36c10.24-10.24 15.36-20.48 15.36-30.72v-117.76c0 0 0 0 0 0v-465.92c0-30.72-10.24-51.2-30.72-71.68s-46.080-30.72-71.68-30.72c-25.6 0-51.2 10.24-71.68 30.72s-30.72 46.080-30.72 71.68v261.12c0 0 0 0 0 0v353.28c0 46.080 20.48 87.040 46.080 117.76 35.84 25.6 76.8 46.080 122.88 46.080s87.040-20.48 117.76-46.080c30.72-30.72 46.080-71.68 46.080-117.76v-353.28c0-20.48 15.36-35.84 35.84-35.84s35.84 15.36 35.84 35.84v353.28c0 66.56-25.6 122.88-71.68 168.96v0c-40.96 40.96-102.4 66.56-163.84 66.56-66.56 0-128-25.6-168.96-71.68-46.080-40.96-71.68-97.28-71.68-163.84z" />
<glyph unicode="&#xe60d;" glyph-name="delete" horiz-adv-x="878" d="M787.2 864h-192v51.2c0 25.6-19.2 44.8-44.8 44.8h-224c-25.6 0-44.8-19.2-44.8-44.8v-44.8h-192c-51.2-6.4-89.6-44.8-89.6-89.6v-217.6h64v-544c0-25.6 0-83.2 371.2-83.2s371.2 57.6 371.2 83.2v544h64v217.6c6.4 44.8-32 83.2-83.2 83.2zM723.2 44.8c-38.4-12.8-140.8-25.6-288-25.6s-249.6 12.8-288 25.6v518.4h576v-518.4zM793.6 652.8h-704v134.4h704v-134.4zM473.6 480h-64v-371.2h70.4v371.2zM633.6 480h-64v-371.2h70.4v371.2zM307.2 480h-64v-371.2h70.4v371.2z" />
<glyph unicode="&#xe60e;" glyph-name="creditCard" horiz-adv-x="1420" d="M185.060-64h1048.674c98.7 0 185.060 80.192 185.060 185.060v653.88c0 98.698-80.192 185.060-185.060 185.060h-1048.674c-104.868 0-185.060-80.194-185.060-185.060v-660.048c0-98.698 80.192-178.892 185.060-178.892zM111.036 774.94c0 43.18 30.842 74.024 74.024 74.024h1048.674c43.182 0 74.024-30.842 74.024-74.024v-86.362h-1196.722v86.362zM111.036 460.336h1196.722v-345.446c0-43.182-30.844-74.024-74.024-74.024h-1048.674c-43.18 0-74.024 30.842-74.024 74.024v345.446z" />
<glyph unicode="&#xe60f;" glyph-name="collapsed" d="M604.16-64l-71.68 81.92 419.84 512 71.68-81.92zM1024 448l-71.68-81.92-419.84 512 71.68 81.92zM71.68-64l-71.68 81.92 419.84 512 71.68-81.92zM491.52 448l-71.68-81.92-419.84 512 71.68 81.92z" />
<glyph unicode="&#xe610;" glyph-name="close" d="M510.348 529.166l84.474-84.474-512.884-512.884-84.474 84.476 512.884 512.884zM-2.56 879.716l84.474 84.476 512.884-512.884-84.476-84.474-512.884 512.884zM510.758 364.384l-84.474 84.476 512.884 512.884 84.476-84.476-512.884-512.884zM1023.658 18.692l-84.476-84.474-512.884 512.884 84.476 84.476 512.884-512.884z" />
<glyph unicode="&#xe611;" glyph-name="claims" horiz-adv-x="1540" d="M281.098 605.28c13.386 73.622 93.7 133.856 167.32 133.856h836.6l-6.692 40.158c-6.692 46.85-60.234 93.698-113.778 93.698h-689.36v13.386c-20.078 40.156-66.928 73.62-107.084 73.62h-301.176c-40.156 0-66.928-26.772-66.928-66.928 0-6.692 0-6.692 0-13.386l33.464-174.012v-6.692l120.472-642.51 127.164 548.81zM448.418 685.596c-46.85 0-107.084-46.85-113.778-93.7l-133.856-575.582c0-6.692 0-13.386 0-20.078 0-33.464 26.772-60.236 66.928-60.236h1024c46.85 0 107.086 40.158 113.778 93.698l133.856 575.582c0 6.692 0 13.386 0 20.078 0 33.464-26.77 60.236-66.928 60.236h-1024z" />
<glyph unicode="&#xe612;" glyph-name="childLinkArrow" horiz-adv-x="592" d="M512.352 531.18l80.452-80.452-514.894-514.894-80.452 80.452 514.894 514.894zM-2.554 879.726l80.452 80.452 514.894-514.894-80.452-80.452-514.894 514.894z" />
<glyph unicode="&#xe613;" glyph-name="leftArrow" horiz-adv-x="1172" d="M-1845.212 962.876h1177.888v-192.718h-1177.888v192.718zM-1845.212 550.112h1177.888v-192.72h-1177.888v192.72zM-1845.212 121.528h1177.888v-192.72h-1177.888v192.72zM-2689.438 429.302l-74.786-455.91 444.404 92.044-93.484 92.044c80.54 122.246 113.618 279.010 71.91 431.462-53.214 195.596-209.978 335.1-395.506 375.37l-8.628-21.572c107.864-46.022 195.596-139.506 228.674-263.192 34.516-126.562 4.316-253.124-70.472-349.482l-102.112 99.236zM-3503.46 505.528l74.786 455.91-444.404-92.046 93.484-92.044c-80.54-122.246-113.618-279.012-71.91-431.462 53.214-195.596 209.978-335.1 395.506-375.37l8.628 21.572c-107.864 46.022-195.596 139.506-228.674 263.19-34.516 126.562-4.316 253.124 70.472 349.482l102.112-99.236zM-3025.978 524.226c-106.428 40.27-151.010 66.158-151.010 107.866 0 34.516 25.888 70.472 107.864 70.472 90.606 0 148.134-28.764 181.214-43.146l35.954 142.382c-41.708 20.134-97.798 37.394-181.214 41.708v109.302h-122.246v-119.37c-133.754-25.888-211.416-112.18-211.416-222.92 0-122.248 92.046-184.090 225.798-230.112 93.484-31.64 132.316-61.842 132.316-109.302 0-50.336-48.898-77.664-120.81-77.664-81.978 0-155.326 25.888-208.54 54.652l-37.394-146.698c47.46-27.326 129.438-50.336 212.854-53.212v-119.372h122.246v128c143.82 24.448 222.92 120.808 222.92 231.55 1.438 113.618-58.966 182.652-208.54 235.866zM512-64l165.394 165.394-231.55 230.112h724.854v232.99h-724.854l231.55 230.112-165.394 165.394-512-512z" />
<glyph unicode="&#xe614;" glyph-name="alert" horiz-adv-x="1190" d="M1158.464 148.040l-434.424 724.040c-72.404 118.948-186.182 118.948-258.586 0l-434.424-724.040c-72.404-118.948-15.516-212.040 118.95-212.040h884.364c139.636 0 196.526 93.092 124.122 212.040zM667.152 148.040c0-41.374-31.030-72.404-72.404-72.404s-72.404 31.030-72.404 72.404v15.514c0 41.374 31.030 72.404 72.404 72.404s72.404-31.030 72.404-72.404v-15.514zM667.152 370.424c0-41.374-31.030-72.404-72.404-72.404s-72.404 31.030-72.404 72.404v274.1c0 41.374 31.030 72.404 72.404 72.404s72.404-31.030 72.404-72.404v-274.1z" />
<glyph unicode="&#xe615;" glyph-name="help" d="M512 960c-283.308 0-512-228.692-512-512s228.694-512 512-512c283.308 0 512 228.692 512 512s-228.692 512-512 512zM512 31.572c-228.692 0-416.428 187.734-416.428 416.428s187.734 416.428 416.428 416.428c228.692 0 416.428-187.734 416.428-416.428s-187.734-416.428-416.428-416.428zM464.214 192h98.988v95.572h-98.986v-95.572zM631.466 666.452c-34.134 23.894-75.092 37.548-126.294 37.548-37.548 0-71.68-6.826-95.572-23.894-40.96-27.308-64.854-71.68-68.266-133.12h95.572c0 17.068 6.826 37.548 17.068 54.612s30.72 23.894 54.612 23.894c27.308 0 44.374-6.826 54.614-20.48s13.654-30.72 13.654-44.374c0-13.654-3.414-27.308-13.654-40.96-3.414-6.826-10.24-13.654-20.48-20.48l-23.894-20.48c-23.894-17.068-37.548-34.134-44.372-51.2-6.826-13.654-10.24-40.96-10.24-78.506h92.16c0 17.068 0 30.72 3.414 40.96 3.414 13.654 13.654 23.894 27.308 34.134l23.894 17.068c23.894 17.068 40.96 34.132 47.788 47.786 13.654 20.48 20.48 44.372 20.48 71.68 3.414 47.786-13.654 81.92-47.788 105.812z" />
<glyph unicode="&#xe616;" glyph-name="calendar" d="M27.306 867.84v-931.84h972.8v931.84h-972.8zM952.32-19.626h-880.64v624.64h880.64v-624.64zM133.12 960h136.534v-44.374h-136.532v44.374zM750.932 960h136.534v-44.374h-136.534v44.374zM341.334 540.16h136.532v-126.294h-136.534v126.294zM546.134 540.16h136.534v-126.294h-136.534v126.294zM750.932 540.16h136.534v-126.294h-136.534v126.294zM133.12 352.428h136.534v-126.294h-136.532v126.294zM341.334 352.428h136.532v-126.294h-136.534v126.294zM546.134 352.428h136.534v-126.294h-136.534v126.294zM750.932 352.428h136.534v-126.294h-136.534v126.294zM133.12 161.28h136.534v-126.294h-136.532v126.294zM341.334 161.28h136.532v-126.294h-136.534v126.294zM546.134 161.28h136.534v-126.294h-136.534v126.294z" />
<glyph unicode="&#xe617;" glyph-name="search" d="M723.626 543.572c0-73.52-59.6-133.12-133.12-133.12s-133.12 59.6-133.12 133.12c0 73.52 59.6 133.12 133.12 133.12s133.12-59.6 133.12-133.12zM0 823.466v-750.932c0-75.092 61.44-136.534 136.532-136.534h750.932c75.092 0 136.534 61.44 136.534 136.534v750.932c0 75.092-61.44 136.534-136.534 136.534h-750.932c-75.094 0-136.532-61.44-136.532-136.534zM750.932 400.212c-71.68-81.92-187.732-95.572-276.48-40.96l-187.734-184.32c-6.826-6.826-27.308 0-47.788 20.48-17.068 17.068-27.306 40.96-20.48 47.788l187.734 187.732c-51.2 81.92-40.96 194.56 30.72 266.24 85.332 85.332 221.866 85.332 303.788-3.414 81.92-81.92 85.332-211.628 10.24-293.548z" />
<glyph unicode="&#xe618;" glyph-name="downArrow" horiz-adv-x="1762" d="M1024.868 76.408l-141.052-141.052-879.228 879.228 141.052 141.052 879.228-879.228zM1621.798 960.886l141.052-141.052-879.228-879.228-141.052 141.052 879.228 879.228z" />
<glyph unicode="&#xe619;" glyph-name="savings" horiz-adv-x="558" d="M245.76 202.24c-81.92 0-153.6 25.6-209.92 56.32l-35.84-148.48c46.080-25.6 128-51.2 215.040-56.32v-117.76h122.88v128c143.36 25.6 225.28 122.88 225.28 230.4 0 112.64-61.44 184.32-209.92 235.52-107.52 40.96-153.6 66.56-153.6 107.52 0 35.84 25.6 71.68 107.52 71.68 92.16 0 148.48-30.72 179.2-40.96l35.84 138.24c-40.96 20.48-97.28 40.96-179.2 40.96v112.64h-122.88v-117.76c-133.12-25.6-215.040-112.64-215.040-225.28 0-122.88 92.16-184.32 225.28-230.4 92.16-30.72 133.12-61.44 133.12-107.52 5.12-51.2-46.080-76.8-117.76-76.8z" />
<glyph unicode="&#xe61a;" glyph-name="expenseDependentCare" d="M896 590.223c0-73.834-59.855-133.689-133.689-133.689s-133.689 59.855-133.689 133.689c0 73.834 59.855 133.689 133.689 133.689s133.689-59.855 133.689-133.689zM652.8 429.512c-1.422 5.689-4.267 11.378-7.111 15.644-14.222 55.467-64 95.289-123.733 95.289h-156.444c-71.111 0-128-56.889-128-128 0-22.756 7.111-45.511 17.067-64 0-2.844 0-5.689 1.422-8.533v0l11.378-48.356h-78.222c-32.711 0-58.311-25.6-58.311-58.311s25.6-58.311 58.311-58.311h150.756c18.489 0 34.133 8.533 45.511 21.333 11.378 14.222 15.644 32.711 11.378 49.778l-8.533 39.822h133.689c17.067 0 32.711 2.844 48.356 9.956l24.178-81.067c7.111-25.6 31.289-42.667 56.889-42.667 5.689 0 11.378 1.422 17.067 2.844 31.289 8.533 48.356 41.244 39.822 72.533l-55.467 182.044z" />
<glyph unicode="&#xe900;" glyph-name="attachment" d="M548.546 896.255c90.127 84.993 235.438 84.993 325.565 0 89.187-84.106 91.261-220.126 6.21-306.659l-6.223-6.095-451.759-425.562c-51.751-48.803-134.844-48.803-186.595 0-51.11 48.198-52.872 126.162-5.274 176.426l5.289 5.277 416.908 392.696c13.972 13.161 35.953 12.488 49.097-1.502 12.132-12.914 12.493-32.662 1.488-45.975l-2.988-3.186-416.893-392.682c-23.816-22.459-23.816-57.958 0-80.417 23.529-22.188 61.536-23.493 86.78-3.905l4.577 3.918 451.759 425.562c62.191 58.648 62.191 152.822 0 211.47-61.33 57.836-160.298 59.702-224.057 5.597l-6.256-5.597-451.282-425.575c-100.566-94.837-100.566-247.686 0-342.523 99.437-93.773 260.030-95.904 362.247-6.394l7.035 6.394 451.282 425.575c13.964 13.169 35.946 12.509 49.098-1.473 12.14-12.907 12.512-32.654 1.515-45.974l-2.986-3.188-451.282-425.575c-128.502-121.182-336.032-121.182-464.534 0-127.284 120.033-129.641 314.145-7.071 436.922l7.071 6.872 451.282 425.575z" />
<glyph unicode="&#xe901;" glyph-name="BagOMoney" horiz-adv-x="802" d="M263.248 643.229l275.637-0.102c41.207-88.902 265.284-198.037 263.234-456.772-1.319-212.85-159.164-249.631-393.17-250.345l-8.447-0.011c-238.018 0-398.849 35.765-400.489 250.356-2.050 258.735 222.027 368.279 263.234 456.874zM400.605 521.729c-11.449 0-17.57-2.177-18.444-6.37l-0.109-1.090v-35.356c-27.327-2.679-53.252-13.344-74.521-30.656-18.806-17.46-28.805-42.381-27.266-67.954-0.238-13.757 2.782-27.376 8.815-39.75 7.133-12.473 16.315-23.665 27.164-33.108 18.1-13.942 37.964-25.423 59.068-34.154l7.971-3.144v-133.251c-13.141 0.597-25.822 5-36.492 12.671 0.364 1.533 0.844 3.035 1.435 4.496l0.871 2.733 0.871 2.887 1.64 5.416c0.084 1.6 0.084 3.203 0 4.803 0.2 10.841-3.93 21.318-11.481 29.123-15.992 15.848-41.821 15.848-57.813 0-7.804-7.746-12.067-18.352-11.788-29.327 0-20.437 11.583-38.013 34.647-51.093 21.889-12.096 46.032-19.532 70.9-21.868l6.799-0.51v-42.816c0-5.007 5.843-7.46 18.553-7.46 11.733 0 17.876 2.090 18.752 6.349l0.109 1.11v44.247c28.188 2.255 54.952 13.091 76.698 30.972l4.281 3.67 0.923-0.307c20.369 18.516 31.603 44.983 30.752 72.45 0.261 13.705-3.287 27.215-10.251 39.035-7.945 11.984-17.815 22.583-29.214 31.371-20.118 13.713-41.407 25.623-63.615 35.596l-9.574 4.155v125.587c12.24-0.243 24.25-3.359 35.057-9.095-4.804-8.721-7.44-18.462-7.688-28.408 0.206-9.659 4.486-18.785 11.788-25.138 15.98-15.78 41.73-15.78 57.711 0 7.35 7.82 11.326 18.205 11.071 28.919 0 21.663-12.506 39.75-37.004 53.954-20.13 11.342-42.471 18.172-65.467 20.049l-6.287 0.389v33.415c0 4.905-6.458 7.46-18.861 7.46zM419.774 253.695c15.164-6.525 29.344-15.123 42.13-25.547 9.424-7.976 14.734-19.766 14.453-32.086 0.076-7.044-1.393-14.019-4.305-20.437-7.893-19.007-25.319-30.656-52.278-36.174v114.244zM382.359 437.937v-105.252c-31.674 16.963-47.255 35.867-47.255 56.918 0 26.671 15.581 42.612 47.255 48.334zM519.307 723.547c14.549 0 26.344-11.758 26.344-26.262 0-13.698-10.52-24.947-23.946-26.155l-2.398-0.107h-237.608c-14.549 0-26.344 11.758-26.344 26.262 0 13.698 10.52 24.947 23.946 26.155l2.398 0.107h237.608zM404.856 960c16.805-0.095 67.084-1.536 76.318-15.833 15.683-23.809-27.061-88.698-30.137-111.894 41.002 2.452 57.301 77.866 71.754 91.968s60.478-5.109 79.339-15.328c74.333-36.546-23.021-20.828-63.829-150.119l-1.467-4.795h-267.949v-0.511c-39.977 134.988-121.366 92.785-65.398 155.425 15.991 18.496 64.681 28.51 79.134 14.613s31.367-89.311 71.754-91.968c-3.075 23.707-45.82 88.595-30.137 112.405 9.43 14.493 59.812 15.942 76.625 16.037h3.992z" />
<glyph unicode="&#xe902;" glyph-name="Calendar" horiz-adv-x="960" d="M73.143 9.14h164.571v164.571h-164.571v-164.571zM274.286 9.14h182.857v164.571h-182.857v-164.571zM73.143 210.283h164.571v182.857h-164.571v-182.857zM274.286 210.283h182.857v182.857h-182.857v-182.857zM73.143 429.712h164.571v164.571h-164.571v-164.571zM493.714 9.14h182.857v164.571h-182.857v-164.571zM274.286 429.712h182.857v164.571h-182.857v-164.571zM713.143 9.14h164.571v164.571h-164.571v-164.571zM493.714 210.283h182.857v182.857h-182.857v-182.857zM292.572 703.998v164.571c0 4.949-1.804 9.24-5.413 12.873s-7.899 5.437-12.873 5.413h-36.571c-4.949 0-9.24-1.804-12.873-5.413s-5.437-7.899-5.413-12.873v-164.571c0-4.949 1.804-9.24 5.413-12.873s7.899-5.437 12.873-5.413h36.571c4.949 0 9.24 1.804 12.873 5.413s5.437 7.899 5.413 12.873zM713.143 210.283h164.571v182.857h-164.571v-182.857zM493.714 429.712h182.857v164.571h-182.857v-164.571zM713.143 429.712h164.571v164.571h-164.571v-164.571zM731.429 703.998v164.571c0 4.949-1.804 9.24-5.413 12.873s-7.899 5.437-12.873 5.413h-36.571c-4.949 0-9.24-1.804-12.873-5.413s-5.437-7.899-5.413-12.873v-164.571c0-4.949 1.804-9.24 5.413-12.873s7.899-5.437 12.873-5.413h36.571c4.949 0 9.24 1.804 12.873 5.413s5.437 7.899 5.413 12.873zM950.857 740.569v-731.429c0-19.797-7.241-36.937-21.723-51.419s-31.622-21.723-51.419-21.723h-804.571c-19.797 0-36.937 7.241-51.419 21.723s-21.723 31.622-21.723 51.419v731.429c0 19.797 7.241 36.937 21.723 51.419s31.622 21.723 51.419 21.723h73.143v54.857c0 25.137 8.948 46.665 26.843 64.585s39.424 26.868 64.585 26.843h36.571c25.137 0 46.665-8.948 64.585-26.843s26.868-39.424 26.843-64.585v-54.857h219.429v54.857c0 25.137 8.948 46.665 26.843 64.585s39.424 26.868 64.585 26.843h36.571c25.137 0 46.665-8.948 64.585-26.843s26.868-39.424 26.843-64.585v-54.857h73.143c19.797 0 36.937-7.241 51.419-21.723s21.723-31.622 21.723-51.419z" />
<glyph unicode="&#xe903;" glyph-name="Commuter" horiz-adv-x="764" d="M572.746 161.625l25.799-32.232h41.279l41.279-53.721h-41.279l36.119-48.349h41.279l46.439-61.779h-41.279l25.799-29.546h-59.339l-23.219 29.546h-567.586l-23.219-29.546h-56.759l23.219 29.546h-41.279l46.439 61.779h41.279l36.119 45.663h-41.279l41.279 53.721h41.279l25.799 32.232h49.019l-23.219-32.232h330.232l-23.219 32.232 49.019 2.686zM588.225 72.986h-410.21l-36.119-48.349h479.868l-33.539 48.349zM500.108 959.998c20.57 0 41.14-5.101 61.71-12.754v0l113.135-53.565c33.426-17.855 53.996-51.014 53.996-86.724v0-550.954c0-51.014-41.14-94.376-95.136-94.376v0h-503.965c-51.425 0-95.136 43.362-95.136 94.376v0 550.954c0 35.71 20.57 71.42 53.996 86.724v0l113.135 53.565c20.57 7.652 41.14 12.754 61.71 12.754v0zM605.529 375.885h-100.279c-20.57 0-35.997-15.304-35.997-35.71v0-15.304c0-20.406 15.427-35.71 35.997-35.71v0h100.279c20.57 0 35.997 15.304 35.997 35.71v0 15.304c0 20.406-15.427 35.71-35.997 35.71v0zM258.411 375.885l-102.932-0.086c-19.229-1.255-33.344-16.106-33.344-35.624v0-15.304c0-20.406 15.427-35.71 35.997-35.71v0h100.279c20.57 0 35.997 15.304 35.997 35.71v0 15.304c0 20.406-15.427 35.71-35.997 35.71v0zM692.952 745.738h-622.242v-196.405h622.242v196.405z" />
<glyph unicode="&#xe904;" glyph-name="credit-cards" horiz-adv-x="1249" d="M1081.009 917.527l164.545-506.419c10.486-32.272-7.175-66.933-39.447-77.419l-202.588-65.814v-250.131c0-33.932-27.508-61.44-61.44-61.44h-880.64c-33.932 0-61.44 27.508-61.44 61.44v532.48c0 33.932 27.508 61.44 61.44 61.44l63.951-0.001c-7.7 31.013 9.8 63.149 40.661 73.177l837.538 272.133c32.272 10.486 66.933-7.175 77.419-39.447zM245.76 120.318h-163.84v-61.44h163.84v61.44zM450.56 120.318h-163.84v-61.44h163.84v61.44zM655.36 120.318h-163.84v-61.44h163.84v61.44zM860.16 120.318h-163.84v-61.44h163.84v61.44zM225.28 304.638h-122.88c-10.503 0-19.159-7.906-20.342-18.092l-0.138-2.388v-81.92c0-10.503 7.906-19.159 18.092-20.342l2.388-0.138h122.88c10.503 0 19.159 7.906 20.342 18.092l0.138 2.388v81.92c0 11.311-9.169 20.48-20.48 20.48zM1101.62 721.488l-338.023-109.814 178.483-0.008c33.932 0 61.44-27.508 61.44-61.44v-239.28l189.931 61.699c9.989 3.246 15.778 13.44 13.756 23.492l-0.607 2.314-104.979 323.036zM1018.562 918.626l-2.314-0.607-837.538-272.133c-9.989-3.246-15.778-13.44-13.756-23.492l0.607-2.314 2.724-8.406h65.167l817.563 265.626-8.96 27.57c-3.246 9.989-13.44 15.778-23.492 13.756z" />
<glyph unicode="&#xe905;" glyph-name="DCFSA" horiz-adv-x="1004" d="M266.24 48.465c0-28.16-23.040-51.2-51.2-51.2s-51.2 23.040-51.2 51.2c0 28.16 23.040 51.2 51.2 51.2s51.2-23.040 51.2-51.2zM839.68 48.465c0-28.16-23.040-51.2-51.2-51.2s-51.2 23.040-51.2 51.2c0 28.16 23.040 51.2 51.2 51.2s51.2-23.040 51.2-51.2zM26.999 792.919l5.203-5.195c7.805-7.792 18.211-10.389 26.015-2.597s10.406 20.778 2.602 28.57c0 0 0 0 0 0l-7.805 7.792c-23.414 23.375-23.414 59.737-2.602 83.112s59.836 23.375 83.25 2.597c2.602-2.597 2.602-2.597 5.203-5.195l208.124-218.169-15.609-368.81c0-10.389 0-20.778 2.602-33.764l-70.242-122.071c-57.234 20.778-119.671-5.195-143.085-62.334s5.203-119.474 62.437-142.849c57.234-23.375 119.671 5.195 143.085 62.334 15.609 41.556 5.203 90.904-28.617 122.071l54.633 96.098c33.82-51.945 101.46-72.723 161.296-49.348l218.53 90.904 54.633-57.14c13.008-12.986 18.211-31.167 15.609-49.348l-2.602-10.389h-10.406c-62.437 0-111.867-49.348-111.867-111.682s49.429-111.682 111.867-111.682c62.437 0 111.867 49.348 111.867 111.682 0 41.556-23.414 80.515-62.437 101.293l2.602 12.986c5.203 31.167-2.602 64.931-26.015 88.307l-647.786 677.883c-36.422 41.556-98.859 41.556-137.882 5.195-39.023-38.959-39.023-101.293-2.602-140.252zM523.502 652.625c-50.499 0-93.422 40.399-93.422 90.898s40.399 93.422 90.898 93.422c50.499 0 93.422-40.399 93.422-90.898 0 0 0 0 0 0 0-53.024-40.399-93.422-90.898-93.422 0 0 0 0 0 0zM684.256 439.723l82.696 7.616c18.673 2.539 37.347-5.077 50.685-17.771l168.060-162.477c21.341-17.771 24.009-48.235 5.335-68.545s-50.685-22.848-72.026-5.077c-2.668 2.539-2.668 2.539-5.335 5.077l-234.751 223.405c-5.335 5.077-2.668 10.155 0 15.232 0 2.539 2.668 2.539 5.335 2.539z" />
<glyph unicode="&#xe906;" glyph-name="expenses" horiz-adv-x="1311" d="M530.297 923.827l163.168-163.84h489.505c65.174 0 118.447-51.155 122.169-115.66l0.208-7.22v-573.44c0-65.442-50.945-118.934-115.186-122.671l-7.191-0.209h-1060.595c-65.174 0-118.447 51.155-122.169 115.66l-0.208 7.22v737.28c0 65.442 50.945 118.934 115.186 122.671l7.191 0.209h407.921zM332.183 667.382h-32.758c-9.008 0-16.379-7.814-16.379-17.363v-52.090h-2.559c-65.208 0-117.621-59.361-111.581-129.792 4.299-50.029 40.333-90.724 85.784-104.832l104.927-32.557c12.796-4.015 21.702-16.604 21.702-30.712 0-17.689-13.513-32.014-30.198-32.014h-67.87c-12.489 0-24.773 4.015-35.010 11.395-6.244 4.449-14.639 3.364-19.962-2.17l-35.624-36.897c-7.268-7.488-6.244-19.968 1.843-26.588 25.080-20.836 56.405-32.448 88.548-32.557v-52.090c0-9.55 7.37-17.363 16.379-17.363h32.758c9.008 0 16.379 7.814 16.379 17.363v52.307c47.703 0.977 92.438 31.037 108.203 78.895 22.009 66.849-14.946 135.435-74.217 153.775l-110.557 34.293c-12.796 3.907-21.702 16.604-21.702 30.712 0 17.689 13.513 32.014 30.198 32.014h67.87c12.489 0 24.773-4.015 35.010-11.395 6.244-4.449 14.639-3.364 19.962 2.17l35.624 36.897c7.268 7.488 6.244 19.968-1.843 26.588-25.080 20.836-56.405 32.448-88.548 32.557v52.090c0 9.55-7.371 17.363-16.379 17.363zM1136.916 239.973h-463.188v-85.482h463.188v85.482zM1136.916 410.937h-463.188v-85.482h463.188v85.482zM1136.916 581.9h-463.188v-85.482h463.188v85.482z" />
<glyph unicode="&#xe907;" glyph-name="FSA" horiz-adv-x="1115" d="M1115.022 459.375l-11.402-402.902-111.165 114.299c-2.85-2.857-5.701-8.572-8.551-11.43-165.322-237.17-493.115-294.319-729.696-128.586-82.661 57.149-145.369 137.158-182.424 228.597v0 2.857c-11.402 34.29 5.701 74.294 39.905 85.724s74.11-5.715 88.362-40.004c28.504-65.722 74.11-122.871 133.968-165.733 2.85-2.857 8.551-5.715 11.401-8.572 179.574-117.156 419.005-62.864 535.871 117.156v0l-148.22 65.722 381.95 142.873zM558.54 664.175c11.216 0 16.825-2.719 16.825-5.438v-29.911c25.237 0 47.67-8.158 67.298-19.035 19.629-8.158 33.649-27.192 36.453-48.946 0-10.877-2.804-19.035-11.216-27.192s-16.825-10.877-28.041-10.877c-11.216 0-19.629 2.719-28.041 10.877-5.608 5.438-11.216 13.596-11.216 21.754s2.804 19.035 8.412 27.192c-11.216 5.438-22.433 8.158-33.649 8.158v-114.207c25.237-10.877 47.67-21.754 70.103-35.35 11.216-8.158 19.629-19.035 28.041-29.911 5.608-10.877 11.216-24.473 8.412-35.35 0-24.473-11.216-48.946-30.845-65.261-22.433-19.035-47.67-29.911-78.515-32.631v-40.788c0-5.438-5.608-5.438-16.825-5.438s-16.825 2.719-16.825 5.438v38.069c-25.237 0-50.474 8.158-72.907 21.754-19.629 8.158-30.845 27.192-33.649 46.227 0 20.609 15.1 36.337 35.764 37.935l3.494 0.134c11.216 0 19.629-2.719 28.041-10.877s11.216-16.315 11.216-27.192v-16.315c0 0 0-2.719-2.804-5.438 11.216-8.158 22.433-10.877 33.649-10.877v122.365c-22.433 8.158-44.866 19.035-64.494 35.35-11.216 8.158-19.629 19.035-25.237 29.911s-8.412 24.473-8.412 35.35 8.412 46.227 25.237 62.542c19.629 16.315 44.866 27.192 70.103 29.911v32.631h2.804c0 5.438 5.608 5.438 16.825 5.438zM568.889 436.62v-113.778c19.163 0 35.93 14.587 43.116 35.009 2.395 5.835 2.395 14.587 2.395 20.422 0 11.67-4.791 23.339-11.977 32.091-9.581 8.752-21.558 17.504-33.534 26.256zM848.178 873.553c2.846-2.856 8.539-5.712 11.385-8.567 82.541-57.115 145.158-137.077 182.159-228.462 14.231-34.269-2.846-74.25-37.001-88.529h-2.846c-34.155-14.279-74.002 5.712-88.233 39.981-28.462 65.683-74.002 125.654-133.773 165.635-173.62 122.798-415.551 79.962-537.939-97.096-2.846-5.712-5.692-8.567-8.539-14.279l148.004-65.683-381.396-139.933 11.385 402.664 111.003-117.087c159.389 242.741 483.86 311.279 725.79 151.356zM546.133 595.909c-31.289-5.201-45.511-18.204-45.511-41.61 0-18.204 14.222-33.808 45.511-49.412v91.022z" />
<glyph unicode="&#xe908;" glyph-name="graphic-tablet-wireless" horiz-adv-x="989" d="M557.163 753.943c9.599-9.606 13.345-23.603 9.825-36.719s-13.769-23.358-26.887-26.869c-13.119-3.51-27.113 0.245-36.712 9.851-26.345 25.105-67.759 25.105-94.104 0-14.839-14.849-38.906-14.858-53.756-0.019s-14.858 38.906-0.019 53.756c56.418 53.885 145.235 53.885 201.653 0v0zM342.030 805.413c30.315 30.317 71.433 47.35 114.307 47.35s83.992-17.032 114.307-47.35c14.884-14.705 38.849-14.629 53.639 0.17s14.85 38.766 0.135 53.639c-92.844 92.793-243.319 92.793-336.162 0-14.715-14.874-14.655-38.84 0.135-53.639s38.756-14.876 53.639-0.17v0zM536.64 178.356c8.11-6.827 19.507-8.165 28.977-3.403l119.281 60.832-90.83 90.83-60.828-119.278c-4.763-9.47-3.426-20.868 3.399-28.979v-0.002zM975.063 577.084l-39.701 39.699c-18.167 18.166-47.621 18.166-65.789 0l-249.94-249.94 105.49-105.49 249.942 249.947c8.724 8.724 13.624 20.555 13.624 32.892s-4.902 24.169-13.626 32.892zM760.561 189.259l152.112 152.091v-300.378c-0.055-52.483-42.587-95.015-95.070-95.070h-722.533c-52.483 0.055-95.015 42.587-95.070 95.070v494.365c0.055 52.483 42.587 95.015 95.070 95.070h680.571l-152.101-152.112h-395.372v-380.281h532.393v91.245zM152.112 307.169c0 10.501-8.513 19.014-19.014 19.014h-38.028c-10.501 0-19.014-8.513-19.014-19.014v-38.028c0-10.501 8.513-19.014 19.014-19.014h38.028c10.501 0 19.014 8.513 19.014 19.014v38.028z" />
<glyph unicode="&#xe909;" glyph-name="HRA" horiz-adv-x="1122" d="M232.823 209.051v-2.876c-42.59-31.64-51.107-94.921-19.875-138.067 28.393-34.517 76.661-43.146 113.572-20.135v0l-42.59 43.146h164.679l-65.304-155.326-19.875 57.528c-62.465-31.64-141.965-8.629-176.037 54.652-31.232 57.528-11.357 129.438 45.429 161.079v0zM795.004 629.006c184.555 0 326.52-143.82 326.52-330.787 0-184.090-144.804-330.787-326.52-330.787s-326.52 146.697-326.52 330.787c0 184.090 144.804 330.787 326.52 330.787zM711.333 528.941c-12.24 1.087-21.951-4.349-27.061-12.115-5.679-2.876-8.518-5.753-14.197-8.629-31.232-25.888-36.911-89.169-36.911-94.921-8.518-34.517-8.518-92.045 17.036-129.438 14.197-23.011 31.232-37.393 53.947-43.146-2.839-17.258-5.679-40.27-5.679-66.157 2.839-63.281 25.554-103.551 68.143-117.933 2.839 0 8.518-2.876 11.357-2.876 36.911-5.753 73.822 8.629 105.054 46.022 19.875 23.011 31.232 46.022 36.911 57.528 42.59-5.753 79.5 23.011 88.018 63.281 8.518 43.146-17.036 83.416-59.625 94.921-42.59 8.629-82.34-17.258-90.858-60.404-5.679-37.393 11.357-71.91 42.59-86.292-14.197-28.764-59.625-106.427-124.929-83.416-59.625 23.011-51.107 115.056-45.429 155.326 19.875 0 36.911 5.753 53.947 17.258 36.911 25.888 56.786 83.416 65.304 120.809 0 5.753 2.839 20.135 5.679 34.517v0 2.876c0 20.135 0 40.27-8.518 57.528-2.839 2.876-5.679 8.629-8.518 11.506 0 11.506-11.357 23.011-25.554 25.888-2.839 0-2.839 0-2.839 0l-3.604 0.442c-15.402 1.172-27.831-7.222-30.468-20.577 0-11.506 8.518-25.888 25.554-28.764v0h2.839c5.679 0 14.197 0 19.875 2.876v0l2.839-5.753c5.679-11.506 5.679-31.64 2.839-48.899 0-5.753-2.839-17.258-5.679-31.64v0-2.876c-8.518-34.517-25.554-80.539-53.947-103.551-17.036-11.506-31.232-14.382-51.107-11.506-22.714 5.753-36.911 17.258-48.268 34.517-34.072 54.652-8.518 152.449-8.518 152.449 5.679 17.258 11.357 34.517 22.714 43.146v0h2.839c5.679-5.753 11.357-8.629 19.875-11.506v0h2.839c8.518-2.876 17.036 0 22.714 2.876s11.357 11.506 11.357 17.258c0 11.506-8.518 25.888-25.554 28.764-2.839 0-2.839 0-2.839 0l-4.171 0.61zM877.344 246.444c5.679 31.64 36.911 51.775 68.143 46.022 31.232-2.876 48.268-37.393 45.429-69.034-5.679-31.64-36.911-51.775-68.143-46.022s-51.107 37.393-45.429 69.034zM942.648 275.208c-22.714 5.753-42.59-8.629-48.268-31.64s8.518-43.146 31.232-48.899c22.714-5.753 42.59 8.629 48.268 31.64s-11.357 43.146-31.232 48.899zM326.52 925.275c170.358 0 309.484-129.438 326.52-299.146-124.929-54.652-210.108-181.213-207.269-325.034v0-17.258c-36.911-14.382-76.661-20.135-119.251-20.135-181.715 0-326.52 146.697-326.52 330.786s147.644 330.787 326.52 330.787zM300.966 810.219c-11.357 0-17.036-2.876-17.036-8.629v0l5.679-28.764c-25.554-5.753-48.268-17.258-62.465-34.517-17.036-17.258-22.714-37.393-17.036-60.404 0-14.382 5.679-25.888 11.357-34.517 8.518-11.506 17.036-20.135 28.393-28.764s31.232-20.135 62.465-28.764v0l11.357-120.809c-14.196 0-25.554 2.876-34.072 8.629v0 20.135c-2.839 11.506-5.679 20.135-14.196 25.888-5.679 5.753-14.197 8.629-25.554 8.629-11.357-5.753-22.714-5.753-25.554-17.258-5.679-8.629-8.518-17.258-8.518-28.764 0-20.135 11.357-34.517 34.072-43.146 22.714-11.506 45.429-14.382 70.983-14.382v0l2.839-40.27c0-5.753 5.679-5.753 17.036-5.753s17.036 2.876 17.036 8.629v0l-2.839 40.27c31.232 5.753 53.947 17.258 70.983 37.393s22.714 43.146 22.714 69.034c0 14.382-5.679 25.888-11.357 34.517s-17.036 17.258-28.393 25.888c-11.357 5.753-34.072 17.258-68.143 28.764v0l-11.357 115.056c11.357 0 22.714-2.876 31.232-5.753-5.679-8.629-5.679-17.258-5.679-25.888s2.839-17.258 11.357-23.011c5.679-5.753 14.196-8.629 25.554-8.629 11.357 2.876 19.875 5.753 25.554 14.382 5.679 5.753 8.518 14.382 8.518 25.888 0 23.011-14.196 37.393-39.75 46.022-19.875 8.629-39.75 11.506-65.304 11.506v0l-2.839 31.64c0 5.753-5.679 5.753-17.036 5.753zM343.555 571.478c17.036-5.753 31.232-11.506 39.75-17.258 11.357-8.629 17.036-17.258 17.036-28.764 0-8.629 0-14.382-2.839-20.135-5.679-20.135-19.875-34.517-42.59-37.393v0l-11.357 103.551zM295.287 735.433l8.518-94.921c-31.232 11.506-45.429 25.888-48.268 46.022-2.839 23.011 11.357 37.393 39.75 48.899v0zM709.825 959.792l25.554-57.528c59.625 28.764 139.126 8.629 173.197-51.775 28.393-57.528 11.357-129.438-42.59-161.079v0h-2.839v2.876c39.75 31.64 45.429 94.921 17.036 138.067-28.393 37.393-76.661 43.146-113.572 20.135v0l39.75-43.146-164.679 2.876 68.143 149.573z" />
<glyph unicode="&#xe90a;" glyph-name="HSA_save" horiz-adv-x="1516" d="M250.175 899.026c114.735 47.145 470.454 146.72 802.502-93.884 0 0 122.412 138.591 183.831 101.606 0 0-41.373-128.431-33.695-145.704 43.237-14.228 79.898-42.405 103.645-79.659 34.122-58.932 58.434-102.216 103.218-106.077s106.631-11.38 106.631-11.38v0h-0.427c0 0 8.53-134.933-68.883-194.881-53.522-42.92-114.028-77.239-179.139-101.606-40.093-14.428-149.283-45.52-149.283-45.52s-98.313-8.129-98.313-78.643c0-70.515 14.715-192.443 14.715-192.443s-153.975-38.814-198.333 58.119c-13.009 28.45-21.539 51.819-29.643 69.092v0l-15.568 57.103c-4.516 1.255-37.258 1.403-50.027 1.42l-3.928 0.002c-56.728 0-195.134-6.706-277.24 15.851-24.256 7.544-49.943 9.971-75.281 7.112-23.043-47.055-33.868-98.701-31.563-150.581 3.412-49.381-28.15-72.953-75.068-72.953s-63.978 19.305-94.688 89.21c-23.668 62.371-42.905 126.188-57.581 191.020-13.568 44.499-35.222 86.386-63.978 123.757-25.805 34.343-69.523 145.094-60.993 211.341s46.278 176.998 71.869 200.977v0l4.479 4.471c-17.487 0-45.211 5.080-49.263 27.637-5.758 33.327 30.283 98.761 87.011 79.659 0 0-59.287-26.011-55.235-53.242 3.625-18.696 24.952-23.979 46.278-18.696 37.552 46.821 87.129 83.634 143.951 106.89zM635.664 664.615c-13.432 0-25.343-2.071-35.733-6.214s-19.144-9.609-26.261-16.399c-7.118-6.79-12.514-14.558-16.187-23.304s-5.511-17.78-5.511-27.102c0-11.623 1.636-21.348 4.908-29.173s7.548-14.385 12.829-19.679c5.281-5.294 11.308-9.552 18.082-12.774s13.719-5.984 20.837-8.286c7.118-2.302 14.064-4.402 20.837-6.301s12.801-4.172 18.082-6.819c5.281-2.647 9.557-5.927 12.829-9.84s4.908-9.034 4.908-15.363c0-10.933-3.301-19.161-9.902-24.685s-15.929-8.286-27.984-8.286c-8.266 0-15.355 1.151-21.267 3.452s-11.107 4.833-15.585 7.595c-4.477 2.762-8.438 5.294-11.882 7.595s-6.716 3.452-9.816 3.452c-2.296 0-4.477-0.604-6.544-1.813-1.378-0.806-2.577-1.752-3.597-2.839l-1.397-1.736-15.154-24.512c4.822-4.949 10.447-9.437 16.876-13.465s13.289-7.48 20.579-10.357c7.29-2.877 14.867-5.121 22.731-6.732s15.757-2.417 23.678-2.417c13.891 0 26.319 2.129 37.283 6.387s20.177 10.098 27.639 17.521c7.462 7.423 13.174 16.111 17.135 26.066s5.941 20.628 5.941 32.022c0 10.472-1.636 19.363-4.908 26.67s-7.577 13.493-12.915 18.557c-5.338 5.064-11.394 9.264-18.168 12.601s-13.719 6.243-20.837 8.717c-7.118 2.474-14.064 4.747-20.837 6.819s-12.829 4.431-18.168 7.078c-5.338 2.647-9.644 5.783-12.915 9.408s-4.908 8.2-4.908 13.724c0 8.631 2.985 15.622 8.955 20.974s14.925 8.027 26.864 8.027c6.773 0 12.686-0.892 17.737-2.676s9.529-3.711 13.432-5.783c3.903-2.071 7.319-3.999 10.246-5.783s5.654-2.676 8.18-2.676c2.641 0 4.793 0.604 6.458 1.813 1.248 0.906 2.481 2.217 3.697 3.933l1.211 1.85 12.743 24.34c-8.84 8.286-19.66 14.759-32.461 19.42s-26.721 6.991-41.76 6.991zM347.391 661.853h-52.006v-250.476h52.006v107.889h110.040v-107.889h52.006v250.476h-52.006v-106.336h-110.040v106.336zM867.454 661.853h-52.867l-97.641-250.476h40.469c4.363 0 7.979 1.18 10.849 3.539 2.153 1.769 3.821 3.684 5.005 5.745l1.022 2.109 16.876 47.817h99.535l16.876-47.817c1.378-3.337 3.473-6.071 6.286-8.2 2.25-1.703 5.033-2.725 8.349-3.066l2.587-0.128h40.124l-97.469 250.476zM840.934 614.9c1.607-6.33 3.301-12.199 5.080-17.608 1.335-4.057 2.621-7.725 3.858-11.005l1.222-3.15 27.036-76.645h-74.221l26.864 76.299c1.607 4.028 3.301 8.775 5.080 14.241s3.473 11.422 5.080 17.866zM701.65 920.566c-41.623 12.782-85.359 18.155-129.023 15.851-43.678 1.087-87.271-4.259-129.236-15.851v0 1.016c-3.391-1.48-4.981-5.224-3.625-8.535 1.236-2.396 3.81-3.899 6.611-3.861v0h2.559c40.363 10.082 81.968 14.935 123.692 14.428v0h2.559c40.503 1.314 80.966-3.557 119.853-14.428 2.133-1.125 4.735-1.081 6.824 0.117s3.349 3.367 3.307 5.69c-0.045 2.323-1.386 4.447-3.52 5.573z" />
<glyph unicode="&#xe90b;" glyph-name="pay-me" horiz-adv-x="1149" d="M723.728 458.082c25.462 4.577 63.487 2.616 114.077-5.885s85.934-16.347 106.036-23.54c44.894-19.616 90.29-34.329 136.189-44.137s68.848-14.712 68.848-14.712v0-350.151l-240.215-9.808c0 0-17.589-4.087-52.767-12.26s-75.884-17.001-122.118-26.482c-46.234-9.481-91.797-17.982-136.691-25.501s-77.391-10.626-97.493-9.318c-20.102 1.308-48.244 6.702-84.427 16.183s-75.213 21.087-117.092 34.819c-41.879 13.731-83.924 28.607-126.138 44.627s-79.736 31.223-112.569 45.608c-52.265 26.809-70.021 59.666-53.269 98.572s56.284 49.858 118.6 32.857c38.863-10.462 76.721-20.597 113.574-30.405s71.026-18.309 102.518-25.501c31.493-7.193 58.797-13.078 81.914-17.655s40.371-7.52 51.762-8.827c10.051-1.308 26.97 3.596 50.757 14.712s48.746 24.030 74.879 38.742c26.132 14.712 50.087 28.934 71.863 42.666s36.015 22.232 42.716 25.501c-5.36 17.001-13.234 25.501-23.619 25.501s-24.289-3.596-41.711-10.789c-20.102-9.808-47.071-24.030-80.909-42.665s-56.787-30.242-68.848-34.819c-27.472-15.039-54.442-7.356-80.909 23.049s-14.574 61.628 35.68 93.668c20.102 13.078 41.041 27.463 62.818 43.156s44.056 30.896 66.838 45.608c22.782 14.712 45.899 28.117 69.351 40.213s46.904 21.088 70.356 26.972zM727.287 959.997c52.736 0 86.399-17.243 99.122-26.525s21.363-19.307 25.921-30.075c11.774-24.506 23.642-49.197 35.606-74.074s23.927-49.939 35.89-75.188c11.964-25.248 23.927-50.589 35.89-76.023s24.022-50.96 36.175-76.58c4.178-10.768 4.178-19.122 0-25.063s-12.913-8.911-26.206-8.911c-74.060 8.54-141.473 2.414-202.24-18.379s-120.299-44.648-178.598-71.567c-58.299-26.919-117.831-51.053-178.598-72.403s-117.536-44.627-172.826-44.627c-20.771 0-50.232 11.938-65.145 29.389s-21.048 30.369-25.226 41.136c-12.153 24.506-24.212 49.197-36.175 74.074s-23.927 50.032-35.89 75.466l-35.89 76.301c-11.964 25.434-23.832 50.96-35.606 76.58-4.558 10.396-4.653 19.122-0.285 26.176s13.008 9.654 25.921 7.797c74.060-7.426 141.568-0.464 202.525 20.885s120.489 45.391 178.598 72.124c58.109 26.733 117.641 50.496 178.598 71.289s85.703 28.196 138.439 28.196zM483.742 814.655c-19.896-0.378-38.956-4.729-57.178-13.053-18.223-8.702-34.028-20.62-47.416-35.754s-23.522-31.876-30.402-50.226c-6.88-18.35-10.134-37.74-9.762-58.171s5.392-40.483 15.062-60.157c8.554-19.296 20.454-35.848 35.702-49.658s31.983-24.309 50.206-31.497c18.223-7.189 37.375-10.594 57.457-10.215s39.049 4.918 56.9 13.621c18.223 9.837 34.028 22.322 47.416 37.456s23.615 31.781 30.681 49.942c7.066 18.161 10.32 37.173 9.762 57.036s-5.671 39.632-15.341 59.306c-8.554 19.674-20.361 36.416-35.423 50.226s-31.797 24.214-50.205 31.214c-18.409 6.999-37.561 10.31-57.457 9.932zM449.337 778.356l11.991-24.746c8.416 3.777 16.101 6.114 23.056 7.014s13.067 1.109 18.338 0.631l7.193-33.564c-3.739-0.256-9.193-0.526-16.362-0.81s-15.513-2.562-25.032-6.834c-8.416-3.777-13.414-8.019-14.996-12.728s-1.417-9.034 0.493-12.976c2.122-4.38 6.515-7.119 13.177-8.217s16.609-1.434 29.839-1.007c18.14 1.386 32.588-0.528 43.346-5.743s19.142-14.027 25.155-26.437c2.83-5.84 4.536-11.961 5.12-18.365s-0.012-12.714-1.786-18.931c-1.774-6.217-4.781-12.232-9.019-18.044s-9.728-11.12-16.471-15.923l13.582-28.031-25.454-11.423-12.521 25.841c-9.251-3.44-18.426-5.736-27.526-6.887s-16.737-1.423-22.909-0.816l-8.361 35.973c7.422-0.758 15.389-0.737 23.904 0.063s17.049 3.118 25.602 6.957c7.45 3.343 12.796 7.475 16.038 12.396s3.312 10.062 0.21 15.424c-2.476 5.11-6.806 8.499-12.989 10.168s-14.917 2.015-26.202 1.039c-8.101-0.614-15.722-0.657-22.864-0.129s-13.737 1.834-19.786 3.918c-6.049 2.085-11.467 5.207-16.255 9.369s-8.809 9.6-12.063 16.315c-2.971 6.132-4.731 12.363-5.279 18.693s0.066 12.516 1.842 18.556c1.776 6.040 4.664 11.78 8.663 17.218s9.13 10.362 15.391 14.772l-12.521 25.841 25.454 11.423z" />
<glyph unicode="&#xe90c;" glyph-name="wellness" horiz-adv-x="979" d="M385.931 875.622l69.125-4.347 23.641-281.304c32.554-0.093 64.885 5.356 95.593 16.111 8.228 2.978 14.893 9.145 18.475 17.095s3.778 17.005 0.54 25.1c-7.221 16.968-26.633 25.216-43.942 18.668-10.658-3.885-21.675-6.712-32.892-8.439v0l-6.938 63.933c94.308 22.504 394.707 78.765 444.559-141.675v0h-0.514c35.976-159.065-35.462-644.954-472.826-644.954s-508.802 485.633-472.569 644.954c40.858 180.802 251.831 175.943 377.747 155.229v0 139.629zM221.469 622.704c-10.635 15.479-31.741 19.679-47.54 9.462-3.598-2.046-86.085-55.494-86.085-192.31 1.542-17.713 16.44-31.31 34.306-31.31s32.764 13.597 34.306 31.31c0 98.201 52.422 135.026 55.249 137.072 7.472 4.717 12.719 12.23 14.557 20.844s0.11 17.601-4.792 24.932zM480.834 778.646c0 0-12.327 191.541 240.767 180.722 0 0-21.769-213.67-240.767-180.722z" />
<glyph unicode="&#xe90d;" glyph-name="calculator" d="M512 960c282.77 0 512-229.23 512-512s-229.23-512-512-512c-282.77 0-512 229.23-512 512s229.23 512 512 512zM388.447 367.722l-2.4-2.184-62.129-62.11-62.129 62.11c-11.649 11.649-28.759 12.377-41.091 2.184l-2.4-2.184-2.184-2.4c-9.514-11.51-9.514-27.181 0-38.691l2.184-2.4 62.11-62.129-62.11-62.129c-11.649-11.649-12.377-28.759-2.184-41.091l2.184-2.4c11.649-11.649 28.759-12.377 41.091-2.184l2.4 2.184 62.129 62.11 62.129-62.11c11.649-11.649 28.759-12.377 41.091-2.184l2.4 2.184c11.649 11.649 12.377 28.759 2.184 41.091l-2.184 2.4-62.11 62.129 62.11 62.129c11.649 11.649 12.377 28.759 2.184 41.091l-2.184 2.4-2.4 2.184c-11.51 9.514-27.181 9.514-38.691 0zM720.98 207.673c-17.312 0-31.347-14.035-31.347-31.347s14.035-31.347 31.347-31.347c17.312 0 31.347 14.035 31.347 31.347s-14.035 31.347-31.347 31.347zM807.184 312.163h-172.408c-15.804 0-28.735-14.106-28.735-31.347v0l0.132-3.008c1.399-15.844 13.728-28.339 28.603-28.339v0h172.408c15.804 0 28.735 14.106 28.735 31.347s-12.931 31.347-28.735 31.347v0zM720.98 395.755c-17.312 0-31.347-14.035-31.347-31.347s14.035-31.347 31.347-31.347c17.312 0 31.347 14.035 31.347 31.347s-14.035 31.347-31.347 31.347zM323.918 730.122l-3.008-0.132c-14.854-1.312-26.764-12.23-28.195-25.845l-0.144-2.757v-54.857h-54.857c-14.874 0-27.204-12.495-28.603-28.339l-0.132-3.008 0.132-3.008c1.312-14.854 12.23-26.764 25.845-28.195l2.757-0.144h54.857v-54.857c0-15.804 14.106-28.735 31.347-28.735 16.227 0 29.677 11.454 31.203 25.978l0.144 2.757v54.857h54.857c15.804 0 28.735 14.106 28.735 31.347 0 16.227-11.454 29.677-25.978 31.203l-2.757 0.144h-54.857v54.857c0 15.804-14.106 28.735-31.347 28.735zM804.571 646.531h-188.082c-16.227 0-29.677-12.495-31.203-28.339l-0.144-3.008 0.144-3.008c1.431-14.854 13.341-26.764 28.195-28.195l3.008-0.144h188.082c17.241 0 31.347 14.106 31.347 31.347s-14.106 31.347-31.347 31.347z" />
<glyph unicode="&#xe90e;" glyph-name="Contribute" d="M512 960c282.77 0 512-229.23 512-512s-229.23-512-512-512c-282.77 0-512 229.23-512 512s229.23 512 512 512zM345.42 568.206c-24.59 4.471-51.417 13.413-89.42 22.355v-158.722c29.062 0 58.124-20.12 98.363-46.945 42.475-26.826 69.301-26.826 109.54-24.59 17.884 0 35.769 2.235 53.653 0 17.884-49.181 64.83-84.949 120.718-84.949 71.536 0 129.659 58.124 129.659 129.659 2.235 67.065-51.417 122.954-118.483 129.659h0.001c-24.591 20.12-107.304 69.301-145.309 82.714-29.061 8.942-109.54-31.297-158.722-49.181zM640.509 496.671c49.181 0 89.42-40.24 89.42-89.42 0-51.417-40.24-91.657-89.42-91.657-29.062 0-55.888 13.413-71.536 35.769 31.297-2.235 64.83 8.942 53.652 44.71-6.706 22.355-38.004 33.533-67.065 38.004 11.178 35.769 44.71 62.595 84.949 62.595zM551.088 501.141c-15.649-17.884-29.062-38.004-35.769-60.359-33.532 11.178-49.181 38.004-42.474 44.71 20.12 22.355 53.652 20.12 78.243 15.649z" />
<glyph unicode="&#xe90f;" glyph-name="Credit-card-circle" d="M512 960c282.77 0 512-229.23 512-512s-229.23-512-512-512c-282.77 0-512 229.23-512 512s229.23 512 512 512zM825.905 490.667h-633.905v-205.497c0-34.482 28.526-62.694 63.39-62.694v0h507.124c34.865 0 63.39 28.212 63.39 62.694v0 205.497zM594.286 368.762c20.198 0 36.571-16.374 36.571-36.571s-16.374-36.571-36.571-36.571c-20.198 0-36.571 16.374-36.571 36.571s16.374 36.571 36.571 36.571zM740.571 368.762c20.198 0 36.571-16.374 36.571-36.571s-16.374-36.571-36.571-36.571c-20.198 0-36.571 16.374-36.571 36.571s16.374 36.571 36.571 36.571zM472.381 368.762c20.198 0 36.571-16.374 36.571-36.571s-16.374-36.571-36.571-36.571c-20.198 0-36.571 16.374-36.571 36.571s16.374 36.571 36.571 36.571zM762.514 661.333h-507.124c-34.865 0-63.39-28.212-63.39-62.694v0-10.449h633.905v10.449c0 34.482-28.526 62.694-63.39 62.694v0z" />
<glyph unicode="&#xe910;" glyph-name="link" d="M512 960c282.77 0 512-229.23 512-512s-229.23-512-512-512c-282.77 0-512 229.23-512 512s229.23 512 512 512zM363.81 792.381c-42.667 0-42.667 0-73.055-27.544l-4.279-4.075-56-55.619c-32.381-31.619-32.381-31.619-32.381-77.333 0-42.667 0-42.667 27.876-73.387l4.124-4.328 79.238-79.238c32-32 32-32 77.714-32 43.571 0 43.571 0 75.089 29.464l4.149 4.060 33.524-33.524c-33.524-32.762-33.524-32.762-33.524-79.619 0-42.667 0-42.667 27.544-73.055l4.075-4.279 78.476-78.857c31.619-32.381 31.619-32.381 77.714-32.381 42.667 0 42.667 0 73.055 27.544l4.279 4.075 56 55.619c32.381 31.619 32.381 31.619 32.381 77.333 0 42.667 0 42.667-27.876 73.387l-4.124 4.328-79.238 79.238c-32 32-32 32-77.714 32-43.571 0-43.571 0-75.089-29.464l-4.149-4.060-33.524 33.524c33.524 32.762 33.524 32.762 33.524 79.619 0 42.667 0 42.667-27.544 73.055l-4.075 4.279-78.476 78.857c-31.619 32.381-31.619 32.381-77.714 32.381zM630.857 451.048c13.333 0 13.333 0 23.167-8.167l2.738-2.5 79.238-79.238c10.667-10.667 10.667-10.667 10.667-25.905 0-13 0-13-8.167-22.792l-2.5-2.732-56-55.619c-10.667-9.905-10.667-9.905-25.905-9.905-13.667 0-13.667 0-23.25 7.875l-2.655 2.411-78.476 78.857c-10.667 10.667-10.667 10.667-10.667 25.905 0 16 0 16 12.571 27.81 1.143-1.143 1.143-1.143 7.048-7.238s5.905-6.095 8.19-8.19 2.286-2.095 7.238-5.714 4.952-3.619 9.714-4.952 4.762-1.333 10.476-1.333c15.238 0 15.238 0 25.905 10.667s10.667 10.667 10.667 25.905c0 5.714 0 5.714-1.333 10.476s-1.333 4.762-4.952 9.714-3.619 4.952-5.714 7.238-2.095 2.286-8.19 8.19-6.095 5.905-7.238 7.048c11.429 12.19 11.429 12.19 27.429 12.19zM363.81 719.238c13.333 0 13.333 0 23.167-8.167l2.738-2.5 78.476-78.857c10.667-10.667 10.667-10.667 10.667-25.905 0-16 0-16-12.571-27.81-1.143 1.143-1.143 1.143-7.048 7.238s-5.905 6.095-8.19 8.19-2.286 2.095-7.238 5.714-4.952 3.619-9.714 4.952-4.762 1.333-10.476 1.333c-15.238 0-15.238 0-25.905-10.667s-10.667-10.667-10.667-25.905c0-5.714 0-5.714 1.333-10.476s1.333-4.762 4.952-9.714 3.619-4.952 5.714-7.238 2.095-2.286 8.19-8.19 6.095-5.905 7.238-7.048c-11.429-11.81-11.429-11.81-27.429-11.81-13.667 0-13.667 0-23.25 7.875l-2.655 2.411-79.238 79.238c-10.667 10.667-10.667 10.667-10.667 25.905 0 13 0 13 8.167 22.792l2.5 2.732 56 55.619c11.048 10.286 11.048 10.286 25.905 10.286z" />
<glyph unicode="&#xe911;" glyph-name="save-2" d="M512 960c282.77 0 512-229.23 512-512s-229.23-512-512-512c-282.77 0-512 229.23-512 512s229.23 512 512 512zM541.3 682.667h-55.518v-55.216c-61.686-12.27-95.613-52.148-95.613-101.229 0-55.216 43.18-82.823 101.783-104.296 43.18-15.338 61.686-27.608 61.686-49.081s-21.59-36.81-55.518-36.81c-37.012 0-70.939 12.27-95.613 24.54l-18.506-67.486c21.59-12.27 58.601-21.473 98.698-24.54v-55.216h55.518v58.283c64.77 12.27 101.783 55.216 101.783 104.296 0 55.216-24.674 85.891-95.613 110.431l-0.003 0.003c-49.35 18.406-67.855 30.675-67.855 49.080 0 15.338 12.337 30.675 49.35 30.675 40.096 0 67.855-12.27 83.277-18.406l15.422 64.417c-18.506 9.202-43.18 18.406-83.277 18.406v52.148z" />
<glyph unicode="&#xe912;" glyph-name="Secure" d="M515.291 959.989c282.768-1.808 510.512-232.512 508.688-515.28-1.808-282.768-232.512-510.512-515.28-508.688-282.768 1.808-510.512 232.512-508.688 515.28 1.808 282.768 232.512 510.512 515.28 508.688zM751.995 704.005h-64c-3.872 0-7.616-1.408-10.56-3.968l-220.864-193.632c-11.424 2.4-29.088 5.6-40.576 5.6-88.224 0-160-71.776-160-160s71.776-160 160-160c88.224 0 160 71.776 160 160 0 26.208-4.992 43.776-10.656 58.368l54.464 18.496c6.624 2.24 11.008 8.544 10.848 15.52l-1.344 60.736 61.12 4.256c8.192 0.576 14.624 7.264 14.88 15.456l2.272 72.928 47.872 10.624c7.328 1.6 12.544 8.128 12.544 15.616v64c0 8.832-7.168 16-16 16zM367.995 352.005c19.2 0 35.776-11.296 43.456-27.584 2.912-6.208 4.544-13.12 4.544-20.416 0-26.496-21.504-48-48-48s-48 21.504-48 48c0 26.496 21.504 48 48 48z" />
<glyph unicode="&#xe913;" glyph-name="Trim" d="M512 960c282.77 0 512-229.23 512-512s-229.23-512-512-512c-282.77 0-512 229.23-512 512s229.23 512 512 512zM383.979 661.035c-23.339 0-43.342-8.334-60.011-25.003s-25.003-36.672-25.003-60.011c0-23.339 8.334-43.342 25.003-60.011s36.672-25.003 60.011-25.003c13.34 0 25.010 2.332 35.008 6.997v0l50.005-50.005-50.005-50.005c-9.998 4.665-21.668 6.997-35.008 6.997-23.339 0-43.342-8.334-60.011-25.003s-25.003-36.672-25.003-60.011c0-23.339 8.334-43.342 25.003-60.011s36.672-25.003 60.011-25.003c23.339 0 43.342 8.334 60.011 25.003s25.003 36.672 25.003 60.011c0 13.34-2.332 25.010-6.997 35.008v0l50.005 50.005 148.992-148.992h64v20.992l-262.997 264c4.665 10.020 6.997 21.689 6.997 35.029 0 23.339-8.334 43.342-25.003 60.011s-36.672 25.003-60.011 25.003zM384 363.008c11.335 0 21.333-4.167 29.995-12.501s12.992-18.503 12.992-30.507c0-12.004-4.331-22.172-12.992-30.507s-18.66-12.501-29.995-12.501c-11.335 0-21.333 4.167-29.995 12.501s-12.992 18.503-12.992 30.507c0 12.004 4.331 22.172 12.992 30.507s18.66 12.501 29.995 12.501zM512 459.008c7.339 0 11.008-3.669 11.008-11.008s-3.669-11.008-11.008-11.008c-7.339 0-11.008 3.669-11.008 11.008s3.669 11.008 11.008 11.008zM724.992 640h-64l-128-127.979 43.008-43.008 148.992 149.995v20.992zM384 619.008c11.335 0 21.333-4.167 29.995-12.501s12.992-18.503 12.992-30.507c0-12.004-4.331-22.172-12.992-30.507s-18.66-12.501-29.995-12.501c-11.335 0-21.333 4.167-29.995 12.501s-12.992 18.503-12.992 30.507c0 12.004 4.331 22.172 12.992 30.507s18.66 12.501 29.995 12.501z" />
<glyph unicode="&#xf055;" glyph-name="plus-circle" d="M694.857 411.429v73.143q0 14.857-10.857 25.714t-25.714 10.857h-146.286v146.286q0 14.857-10.857 25.714t-25.714 10.857h-73.143q-14.857 0-25.714-10.857t-10.857-25.714v-146.286h-146.286q-14.857 0-25.714-10.857t-10.857-25.714v-73.143q0-14.857 10.857-25.714t25.714-10.857h146.286v-146.286q0-14.857 10.857-25.714t25.714-10.857h73.143q14.857 0 25.714 10.857t10.857 25.714v146.286h146.286q14.857 0 25.714 10.857t10.857 25.714zM877.714 448q0-119.429-58.857-220.286t-159.714-159.714-220.286-58.857-220.286 58.857-159.714 159.714-58.857 220.286 58.857 220.286 159.714 159.714 220.286 58.857 220.286-58.857 159.714-159.714 58.857-220.286z" />
<glyph unicode="&#xf0d0;" glyph-name="magic" horiz-adv-x="951" d="M680 628l167.429 167.429-61.143 61.143-167.429-167.429zM935.429 795.429q0-15.429-10.286-25.714l-734.857-734.857q-10.286-10.286-25.714-10.286t-25.714 10.286l-113.143 113.143q-10.286 10.286-10.286 25.714t10.286 25.714l734.857 734.857q10.286 10.286 25.714 10.286t25.714-10.286l113.143-113.143q10.286-10.286 10.286-25.714zM163.429 904l56-17.143-56-17.143-17.143-56-17.143 56-56 17.143 56 17.143 17.143 56zM363.429 811.429l112-34.286-112-34.286-34.286-112-34.286 112-112 34.286 112 34.286 34.286 112zM894.857 538.286l56-17.143-56-17.143-17.143-56-17.143 56-56 17.143 56 17.143 17.143 56zM529.143 904l56-17.143-56-17.143-17.143-56-17.143 56-56 17.143 56 17.143 17.143 56z" />
<glyph unicode="&#xf0e5;" glyph-name="comment-o" d="M512 740.571q-116.571 0-218-39.714t-161.143-107.143-59.714-145.714q0-64 40.857-122t115.143-100.286l49.714-28.571-15.429-54.857q-13.714-52-40-98.286 86.857 36 157.143 97.714l24.571 21.714 32.571-3.429q39.429-4.571 74.286-4.571 116.571 0 218 39.714t161.143 107.143 59.714 145.714-59.714 145.714-161.143 107.143-218 39.714zM1024 448q0-99.429-68.571-183.714t-186.286-133.143-257.143-48.857q-40 0-82.857 4.571-113.143-100-262.857-138.286-28-8-65.143-12.571h-2.857q-8.571 0-15.429 6t-9.143 15.714v0.571q-1.714 2.286-0.286 6.857t1.143 5.714 2.571 5.429l3.429 5.143t4 4.857 4.571 5.143q4 4.571 17.714 19.714t19.714 21.714 17.714 22.571 18.571 29.143 15.429 33.714 14.857 43.429q-89.714 50.857-141.429 125.714t-51.714 160.571q0 99.429 68.571 183.714t186.286 133.143 257.143 48.857 257.143-48.857 186.286-133.143 68.571-183.714z" />
<glyph unicode="&#xf160;" glyph-name="sort-asc" d="M420.571 137.143q0-6.857-5.714-13.714l-182.286-182.286q-5.714-5.143-13.143-5.143-6.857 0-13.143 5.143l-182.857 182.857q-8.571 9.143-4 20 4.571 11.429 17.143 11.429h109.714v786.286q0 8 5.143 13.143t13.143 5.143h109.714q8 0 13.143-5.143t5.143-13.143v-786.286h109.714q8 0 13.143-5.143t5.143-13.143zM1024 64v-109.714q0-8-5.143-13.143t-13.143-5.143h-475.429q-8 0-13.143 5.143t-5.143 13.143v109.714q0 8 5.143 13.143t13.143 5.143h475.429q8 0 13.143-5.143t5.143-13.143zM914.286 356.571v-109.714q0-8-5.143-13.143t-13.143-5.143h-365.714q-8 0-13.143 5.143t-5.143 13.143v109.714q0 8 5.143 13.143t13.143 5.143h365.714q8 0 13.143-5.143t5.143-13.143zM804.571 649.143v-109.714q0-8-5.143-13.143t-13.143-5.143h-256q-8 0-13.143 5.143t-5.143 13.143v109.714q0 8 5.143 13.143t13.143 5.143h256q8 0 13.143-5.143t5.143-13.143zM694.857 941.714v-109.714q0-8-5.143-13.143t-13.143-5.143h-146.286q-8 0-13.143 5.143t-5.143 13.143v109.714q0 8 5.143 13.143t13.143 5.143h146.286q8 0 13.143-5.143t5.143-13.143z" />
<glyph unicode="&#xf161;" glyph-name="sort-desc" d="M694.857 64v-109.714q0-8-5.143-13.143t-13.143-5.143h-146.286q-8 0-13.143 5.143t-5.143 13.143v109.714q0 8 5.143 13.143t13.143 5.143h146.286q8 0 13.143-5.143t5.143-13.143zM420.571 137.143q0-6.857-5.714-13.714l-182.286-182.286q-5.714-5.143-13.143-5.143-6.857 0-13.143 5.143l-182.857 182.857q-8.571 9.143-4 20 4.571 11.429 17.143 11.429h109.714v786.286q0 8 5.143 13.143t13.143 5.143h109.714q8 0 13.143-5.143t5.143-13.143v-786.286h109.714q8 0 13.143-5.143t5.143-13.143zM804.571 356.571v-109.714q0-8-5.143-13.143t-13.143-5.143h-256q-8 0-13.143 5.143t-5.143 13.143v109.714q0 8 5.143 13.143t13.143 5.143h256q8 0 13.143-5.143t5.143-13.143zM914.286 649.143v-109.714q0-8-5.143-13.143t-13.143-5.143h-365.714q-8 0-13.143 5.143t-5.143 13.143v109.714q0 8 5.143 13.143t13.143 5.143h365.714q8 0 13.143-5.143t5.143-13.143zM1024 941.714v-109.714q0-8-5.143-13.143t-13.143-5.143h-475.429q-8 0-13.143 5.143t-5.143 13.143v109.714q0 8 5.143 13.143t13.143 5.143h475.429q8 0 13.143-5.143t5.143-13.143z" />
</font>
</defs>
</svg>
