<?xml version="1.0" encoding="UTF-8"?>
<svg width="240px" height="135px" viewBox="0 0 240 135" version="1.1" xmlns="http://www.w3.org/2000/svg" xmlns:xlink="http://www.w3.org/1999/xlink">
    <!-- Generator: Sketch 62 (91390) - https://sketch.com -->
    <title>chart-donut</title>
    <desc>Created with Sketch.</desc>
    <g id="chart-donut" stroke="none" stroke-width="1" fill="none" fill-rule="evenodd">
        <g id="Group" transform="translate(16.000000, 16.000000)">
            <rect id="Rectangle-Copy" x="0" y="0" width="104" height="69"></rect>
            <path d="M52,0 C67.6469199,0 82.4620512,6.9805585 92.3366337,19.0057195 C102.211216,31.0308806 106.095386,46.8221317 102.911927,62 L102.911927,62 L83.859426,58.0781061 C84.2795427,56.0058965 84.5,53.8618618 84.5,51.6666667 C84.5,33.8324716 69.9492544,19.375 52,19.375 Z" id="Combined-Shape" stroke="#FFFFFF" stroke-width="2" fill="#4BBF81"></path>
            <path d="M84.0026788,59.0001008 L103,62.9146412 C97.4365358,89.4645354 72.0901103,107.206995 45,103.514554 L45,103.514554 L47.6524908,84.378819 C49.0676076,84.5630788 50.5112591,84.6581665 51.9774436,84.6581665 C67.7536933,84.6581665 80.9210945,73.6489988 84.0026788,59.0001008 Z" id="Combined-Shape" stroke="#FFFFFF" stroke-width="2" fill="#36A991"></path>
            <path d="M47.0000326,84.2041025 L44.4221496,103 C24.3373857,100.233485 7.73588157,85.9254747 2,66.4384596 L2,66.4384596 L20.3967301,61.0004104 C23.8195956,73.1807752 34.2136502,82.4421019 47.0000326,84.2041025 Z" id="Combined-Shape" stroke="#FFFFFF" stroke-width="2" fill="#2192A1"></path>
            <path d="M15.0763066,16 L28.9997672,29.587753 C23.2008816,35.4369582 19.6239678,43.4570261 19.6239678,52.3050847 C19.6239678,55.501691 20.0908322,58.5902266 20.9606694,61.5073691 L2.1392949,67 C-3.24654796,48.9376388 1.7078014,29.4067128 15.0763066,16 L15.0763066,16 Z" id="Combined-Shape" stroke="#FFFFFF" stroke-width="2" fill="#0B7BB1"></path>
            <path d="M52,0 L52,19.4209108 L52,19.4209108 C42.9343394,19.4209108 34.7317245,23.0844843 28.8161216,28.9998288 L15,15.4196279 C24.7662857,5.55389956 38.0930848,0 52,0 L52,0 Z" id="Combined-Shape" stroke="#FFFFFF" stroke-width="2" fill="#03609C"></path>
        </g>
    </g>
</svg>