<?xml version="1.0" encoding="UTF-8"?>
<svg width="240px" height="135px" viewBox="0 0 240 135" version="1.1" xmlns="http://www.w3.org/2000/svg" xmlns:xlink="http://www.w3.org/1999/xlink">
    <!-- Generator: Sketch 62 (91390) - https://sketch.com -->
    <title>chart-line</title>
    <desc>Created with Sketch.</desc>
    <g id="chart-line" stroke="none" stroke-width="1" fill="none" fill-rule="evenodd" stroke-linecap="round">
        <path d="M16,38.4133803 C16,38.4133803 30.6909247,16 45.3818494,16 C60.0727741,16 60.0727741,33.4326291 75.5369053,33.4326291 C90.22783,33.4326291 90.22783,96.688169 104.918755,96.688169 C119.609679,96.688169 119.609679,83.738216 135.073811,83.738216 C149.764735,83.738216 149.764735,118.105399 164.45566,118.105399 C179.919791,118.105399 179.919791,64.3132864 194.610716,64.3132864 C209.301641,64.3132864 223.992565,34.4287793 223.992565,34.4287793" id="Line_1" stroke="#4BBF81" stroke-width="2" transform="translate(119.996283, 67.052700) rotate(-180.000000) translate(-119.996283, -67.052700) "></path>
        <path d="M16,110.136197 C16,110.136197 30.6909247,79.2555399 45.3818494,79.2555399 C60.0727741,79.2555399 60.0727741,56.8421596 75.5369053,56.8421596 C90.22783,56.8421596 90.22783,68.7959624 104.918755,68.7959624 C119.609679,68.7959624 119.609679,101.66892 135.073811,101.66892 C149.764735,101.66892 149.764735,59.8306103 164.45566,59.8306103 C179.919791,59.8306103 179.919791,24.467277 194.610716,24.467277 C209.301641,24.467277 223.992565,71.605493 223.992565,71.605493" id="Line_2" stroke="#2FA2ED" stroke-width="2"></path>
        <path d="M16,108.143897 C16,108.143897 30.6909247,93.2016432 45.3818494,93.2016432 C60.0727741,93.2016432 60.0727741,112.626573 75.5369053,112.626573 C90.22783,112.626573 90.22783,27.9538028 104.918755,27.9538028 C119.609679,27.9538028 119.609679,67.3017371 135.073811,67.3017371 C149.764735,67.3017371 149.764735,71.7844131 164.45566,71.7844131 C179.919791,71.7844131 179.919791,90.2131925 194.610716,90.2131925 C209.301641,90.2131925 223.992565,21.4788263 223.992565,21.4788263" id="Line_3" stroke="#FF3370" stroke-width="2"></path>
    </g>
</svg>