<?xml version="1.0" encoding="UTF-8"?>
<svg width="800px" height="600px" viewBox="0 0 800 600" version="1.1" xmlns="http://www.w3.org/2000/svg" xmlns:xlink="http://www.w3.org/1999/xlink">
    <title>Grid</title>
    <g id="Grid" stroke="none" stroke-width="1" fill="none" fill-rule="evenodd">
        <g id="Group" transform="translate(40.000000, 30.000000)" fill="#949494">
            <rect id="Rectangle-Copy-4" x="0" y="0" width="164" height="91" rx="8.00976801"></rect>
            <rect id="Rectangle-Copy-8" x="0" y="113" width="350" height="91" rx="7.9954181"></rect>
            <rect id="Rectangle-Copy-12" x="0" y="225" width="535" height="91" rx="8.00598578"></rect>
            <rect id="Rectangle-Copy-18" x="-1.42108547e-14" y="337" width="225" height="91" rx="8"></rect>
            <rect id="Rectangle-Copy-9" x="370" y="113" width="350" height="91" rx="8"></rect>
            <rect id="Rectangle-Copy-20" x="495" y="337" width="225" height="91" rx="8"></rect>
            <rect id="Rectangle-Copy-5" x="185" y="0" width="535" height="91" rx="8"></rect>
            <rect id="Rectangle-Copy-22" x="247" y="337" width="225" height="91" rx="7.93650794"></rect>
            <rect id="Rectangle-Copy-15" x="556" y="225" width="164" height="91" rx="8"></rect>
            <rect id="Rectangle-Copy-16" x="0" y="449" width="164" height="91" rx="8.00976801"></rect>
            <rect id="Rectangle-Copy-17" x="370" y="450" width="164" height="91" rx="8"></rect>
            <rect id="Rectangle-Copy-18" x="185" y="449" width="164" height="91" rx="8"></rect>
            <rect id="Rectangle-Copy-19" x="555" y="449" width="164" height="91" rx="8"></rect>
        </g>
    </g>
</svg>