<?xml version="1.0" encoding="UTF-8"?>
<svg width="800px" height="600px" viewBox="0 0 800 600" version="1.1" xmlns="http://www.w3.org/2000/svg" xmlns:xlink="http://www.w3.org/1999/xlink">
    <title>Iconography</title>
    <g id="Iconography" stroke="none" stroke-width="1" fill="none" fill-rule="evenodd">
        <g id="Group-6" transform="translate(66.000000, 60.000000)" fill="#767676">
            <g id="Group-2" transform="translate(4.000000, 0.000000)">
                <path d="M14.7687141,72 C16.2731216,72 17.5424654,71.612145 18.5767455,70.8364349 C19.6110256,70.0607248 20.2221911,69.0852106 20.4102421,67.9098923 C21.7736113,58.3192948 23.360291,52.0313418 25.1702812,49.0460333 C26.9802714,46.0607248 28.237862,44.5680705 28.943053,44.5680705 C29.7892822,44.5680705 31.0468728,46.072478 32.7158248,49.0812929 C34.3847768,52.0901077 35.9244438,58.0372184 37.3348258,66.9226249 C37.5228767,68.2859941 38.1693018,69.3907933 39.274101,70.2370225 C40.3789002,71.0832517 41.7070099,71.5063663 43.2584301,71.5063663 C44.5747866,71.5063663 45.7618581,71.1772772 46.8196446,70.5190989 C47.8774311,69.8609207 48.6178816,68.9441724 49.0409962,67.7688541 C50.4983909,63.8197845 51.1565692,60.2703232 51.015531,57.1204701 C50.8744928,53.970617 50.5924164,51.0558276 50.1693018,48.3761019 C49.605149,45.0852106 49.3583322,41.8648384 49.4288513,38.7149853 C49.4993704,35.5651322 50.8509864,31.7806072 53.4836995,27.3614104 C54.7060305,25.3398629 55.6697915,23.3418217 56.3749825,21.367287 C57.1271862,19.4397649 57.6090667,17.5592556 57.820624,15.7257591 C58.0321813,13.8922625 57.9969218,12.129285 57.7148454,10.4368266 C57.432769,8.791381 56.8921226,7.26346719 56.0929061,5.85308521 C55.0116133,4.01958864 53.6129845,2.58570029 51.8970197,1.55142018 C50.181055,0.517140059 48.3122989,0 46.2907514,0 C43.5640129,0 41.4249335,0.246816846 39.8735134,0.740450539 C38.3220932,1.23408423 36.9587239,1.71596474 35.7834056,2.18609207 C34.843151,2.60920666 33.9028963,2.97355534 32.9626417,3.2791381 C32.022387,3.58472086 30.6825241,3.73751224 28.943053,3.73751224 C27.2505947,3.73751224 25.922485,3.58472086 24.9587239,3.2791381 C23.9949629,2.97355534 23.0429551,2.60920666 22.1027004,2.18609207 C20.9273821,1.71596474 19.5757661,1.23408423 18.0478522,0.740450539 C16.5199384,0.246816846 14.3691059,0 11.5953547,0 C9.57380719,0 7.70505107,0.517140059 5.98908633,1.55142018 C4.27312159,2.58570029 2.89799916,4.01958864 1.86371904,5.85308521 C1.06450259,7.26346719 0.523856163,8.791381 0.241779768,10.4368266 C-0.040296628,12.129285 -0.0755561774,13.8922625 0.136001119,15.7257591 C0.347558416,17.5592556 0.805932559,19.4397649 1.51112355,21.367287 C2.21631454,23.3418217 3.18007556,25.3398629 4.4024066,27.3614104 C7.03511963,31.7806072 8.37498251,35.5651322 8.42199524,38.7149853 C8.46900798,41.8648384 8.23394431,45.0852106 7.71680425,48.3761019 C7.29368966,51.1498531 7.02336645,54.2056807 6.90583462,57.5435847 C6.78830278,60.8814887 7.57576606,64.619001 9.26822443,68.7561214 C9.69133902,69.7904016 10.3847768,70.589618 11.3485378,71.1537708 C12.3122989,71.7179236 13.4523576,72 14.7687141,72 Z M43.5405065,62.4799216 C42.7883028,58.2487757 41.9185672,54.5817826 40.9312998,51.4789422 C39.9440325,48.3761019 38.8509864,45.8021548 37.6521617,43.7571009 C36.4533371,41.712047 35.1252274,40.1958864 33.6678327,39.208619 C32.2104379,38.2213516 30.6355114,37.7277179 28.943053,37.7277179 C27.2505947,37.7277179 25.6756681,38.2213516 24.2182734,39.208619 C22.7608787,40.2428991 21.4210158,41.7825661 20.1986848,43.82762 C18.9763537,45.8726738 17.8950609,48.446621 16.9548062,51.5494613 C15.9675388,54.6052889 15.0978033,58.2252693 14.3455996,62.4094025 C13.7814468,60.0587659 13.5816426,57.8491675 13.7461872,55.7806072 C13.9107318,53.712047 14.1575486,51.596474 14.4866378,49.4338883 C14.7687141,47.6944172 15.0037778,45.9079334 15.1918287,44.0744368 C15.4268924,42.2409403 15.4386456,40.2781587 15.2270883,38.1860921 C15.015531,36.0940255 14.5571568,33.8726738 13.8519659,31.5220372 C13.0997621,29.1714006 11.9009375,26.6092067 10.2554918,23.8354554 C8.56303344,20.9676787 7.49349377,18.2409403 7.04687281,15.65524 C6.60025185,13.0695397 6.8470687,10.906954 7.78732335,9.16748286 C8.21043795,8.41527914 8.75108437,7.83937316 9.40926263,7.43976494 C10.0674409,7.04015671 10.7961382,6.8403526 11.5953547,6.8403526 C13.6169022,6.8403526 15.1683224,7.00489716 16.2496152,7.33398629 C17.3309081,7.66307542 18.3651882,8.03917728 19.3524556,8.46229187 C20.4807612,8.9324192 21.7618581,9.40254652 23.1957465,9.87267385 C24.6296348,10.3428012 26.56891,10.5778648 29.0135721,10.5778648 C31.505247,10.5778648 33.4680285,10.3428012 34.9019169,9.87267385 C36.3358052,9.40254652 37.5933958,8.9324192 38.6746887,8.46229187 C39.6619561,8.03917728 40.684483,7.66307542 41.7422695,7.33398629 C42.800056,7.00489716 44.339723,6.8403526 46.3612705,6.8403526 C47.1604869,6.8403526 47.8891843,7.04015671 48.5473625,7.43976494 C49.2055408,7.83937316 49.7461872,8.41527914 50.1693018,9.16748286 C51.1095565,10.906954 51.3563733,13.0695397 50.9097523,15.65524 C50.4631314,18.2409403 49.3700854,20.9676787 47.6306142,23.8354554 C45.9851686,26.6092067 44.8098503,29.1714006 44.1046593,31.5220372 C43.3524556,33.8726738 42.8823282,36.0940255 42.6942773,38.1860921 C42.5062264,40.2781587 42.5062264,42.2409403 42.6942773,44.0744368 C42.8823282,45.9079334 43.1173919,47.6944172 43.3994683,49.4338883 C43.7755702,51.6434868 44.0458934,53.7708129 44.2104379,55.8158668 C44.3749825,57.8609207 44.151672,60.0822723 43.5405065,62.4799216 Z M28.943053,21.8609207 C30.9175878,21.8609207 32.7745907,21.3907933 34.5140618,20.4505387 C36.3005457,19.510284 37.8402127,18.4760039 39.1330628,17.3476983 C40.425913,16.2193928 41.4719463,15.1851126 42.2711627,14.244858 C43.0233664,13.3046033 43.3994683,12.834476 43.3994683,12.834476 C43.3994683,12.834476 41.8833077,13.3516161 38.8509864,14.3858962 C35.8186652,15.4201763 32.5160207,15.9373164 28.943053,15.9373164 C25.3700854,15.9373164 22.0674409,15.4201763 19.0351196,14.3858962 C16.0027984,13.3516161 14.4866378,12.834476 14.4866378,12.834476 C14.4866378,12.834476 14.886246,13.3046033 15.6854624,14.244858 C16.4376662,15.1851126 17.4719463,16.2193928 18.7883028,17.3476983 C20.1046593,18.4760039 21.6325731,19.510284 23.3720442,20.4505387 C25.1115153,21.3907933 26.9685183,21.8609207 28.943053,21.8609207 Z" id="" fill-rule="nonzero"></path>
                <path d="M195.414062,72 L195.414062,50.4140625 L217,50.4140625 L217,21.5859375 L195.414062,21.5859375 L195.414062,0 L166.585938,0 L166.585938,21.5859375 L145,21.5859375 L145,50.4140625 L166.585938,50.4140625 L166.585938,72 L195.414062,72 Z M189.648438,66.234375 L172.351562,66.234375 L172.351562,44.6484375 L150.765625,44.6484375 L150.765625,27.3515625 L172.351562,27.3515625 L172.351562,5.765625 L189.648438,5.765625 L189.648438,27.3515625 L211.234375,27.3515625 L211.234375,44.6484375 L189.648438,44.6484375 L189.648438,66.234375 Z" id="" fill-rule="nonzero"></path>
                <path d="M343.310428,45.0800226 L358.954155,29.5534769 C360.282212,28.2254202 361.28802,26.7215912 361.971578,25.04199 C362.655137,23.3623889 362.996916,21.6241969 362.996916,19.8274143 C363.035977,17.9525107 362.703963,16.1752583 362.000874,14.4956571 C361.297785,12.8160559 360.301742,11.3317572 359.012746,10.042761 C357.684689,8.71470422 356.18086,7.70889654 354.501259,7.02533792 C352.821658,6.34177931 351.083466,6 349.286683,6 C347.41178,6 345.634527,6.35154443 343.954926,7.05463329 C342.275325,7.75772216 340.791026,8.75376471 339.50203,10.042761 L339.50203,10.042761 L323.916894,25.6864882 L343.310428,45.0800226 Z M335.224906,28.2644806 C334.287454,28.8113275 333.350003,28.6550856 332.412551,27.7957547 C331.514159,26.8973634 331.357917,26.0185023 331.943825,25.1591715 C332.529732,24.2998407 332.822686,23.8701753 332.822686,23.8701753 L332.822686,23.8701753 L341.552706,15.1401552 C341.552706,15.1401552 342.001902,14.8472015 342.900293,14.2612941 C343.798684,13.6753868 344.697076,13.8316287 345.595467,14.73002 L345.72434,14.8529145 C346.549836,15.6730962 346.702181,16.5109925 346.181374,17.3666033 C345.634527,18.2649946 345.361104,18.7141903 345.361104,18.7141903 L345.361104,18.7141903 L336.631084,27.4442103 C336.631084,27.4442103 336.162358,27.7176338 335.224906,28.2644806 Z M316.710233,65.9969163 C318.585136,65.9969163 320.362389,65.6453718 322.04199,64.942283 C323.721591,64.2391941 325.20589,63.2431516 326.494886,61.9541553 L326.494886,61.9541553 L340.26371,48.126741 L335.927995,43.7910264 L323.448168,56.3294444 C322.588837,57.1887752 321.836922,57.9309246 321.192424,58.5558925 C320.547926,59.1808604 319.503058,59.6105258 318.05782,59.8448887 C317.003187,60.0011307 315.938788,59.9620702 314.864625,59.7277073 C313.790461,59.4933443 312.608881,58.8097857 311.319885,57.6770314 C310.187131,56.6223981 309.474277,55.5384694 309.181323,54.4252454 C308.888369,53.3120214 308.898134,52.1499717 309.210618,50.9390965 C309.523102,49.7282212 309.982063,48.7321787 310.587501,47.9509688 C311.192938,47.169759 311.905792,46.3494886 312.726063,45.4901578 L312.726063,45.4901578 L325.264481,33.0103305 L320.928766,28.6746158 L307.042761,42.5020301 C305.714704,43.7910264 304.708897,45.2753251 304.025338,46.9549262 C303.341779,48.6345274 303,50.4117798 303,52.2866835 C303,54.1615871 303.351544,55.9388395 304.054633,57.6184407 C304.796783,59.2589813 305.792825,60.7042196 307.042761,61.9541553 C308.292697,63.2040911 309.737935,64.2001336 311.378476,64.942283 C313.058077,65.6453718 314.835329,65.9969163 316.710233,65.9969163 Z" id="" fill-rule="nonzero"></path>
                <g id="Group" transform="translate(449.000000, 14.000000)">
                    <path d="M36,-3.55271368e-15 C40.8845401,-3.55271368e-15 45.4403131,1.02433862 49.667319,3.07301587 C53.8943249,5.12169312 57.592955,7.39153439 60.7632094,9.88253968 C63.9334638,12.373545 66.481409,14.6899471 68.407045,16.831746 C70.2857143,18.973545 71.295499,20.1375661 71.4363992,20.3238095 C71.8121331,20.8359788 72,21.394709 72,22 C72,22.605291 71.8121331,23.1640212 71.4363992,23.6761905 C71.295499,23.8624339 70.2857143,25.026455 68.407045,27.168254 C66.5283757,29.3100529 64.0039139,31.626455 60.8336595,34.1174603 C57.6634051,36.6084656 53.9412916,38.8783069 49.667319,40.9269841 C45.4403131,42.9756614 40.8845401,44 36,44 C31.1154599,44 26.5596869,42.9756614 22.332681,40.9269841 C18.1056751,38.8783069 14.407045,36.6084656 11.2367906,34.1174603 C8.0665362,31.626455 5.518591,29.3100529 3.59295499,27.168254 C1.71428571,25.026455 0.704500978,23.8624339 0.563600783,23.6761905 C0.187866928,23.1640212 0,22.605291 0,22 C0,21.394709 0.187866928,20.8359788 0.563600783,20.3238095 C0.704500978,20.1375661 1.71428571,18.973545 3.59295499,16.831746 C5.47162427,14.6899471 7.99608611,12.373545 11.1663405,9.88253968 C14.3365949,7.39153439 18.0587084,5.12169312 22.332681,3.07301587 C26.5596869,1.02433862 31.1154599,-3.55271368e-15 36,-3.55271368e-15 Z M35.9295499,5.58730159 L35.0841487,5.58730159 C34.8023483,5.58730159 34.4970646,5.61058201 34.1682975,5.65714286 C32.1017613,5.84338624 30.1526419,6.4021164 28.3209393,7.33333333 C26.4892368,8.26455026 24.9041096,9.46349206 23.5655577,10.9301587 C22.2270059,12.3968254 21.1819961,14.0846561 20.4305284,15.9936508 C19.6790607,17.8560847 19.3033268,19.8582011 19.3033268,22 C19.3033268,24.1417989 19.6790607,26.1439153 20.4305284,28.0063492 C21.1819961,29.9153439 22.2270059,31.6031746 23.5655577,33.0698413 C24.9041096,34.5365079 26.4892368,35.7354497 28.3209393,36.6666667 C30.1526419,37.5978836 32.1017613,38.1798942 34.1682975,38.4126984 L34.1682975,38.4126984 L37.6908023,38.4126984 C39.7573386,38.1798942 41.7064579,37.5978836 43.5381605,36.6666667 C45.369863,35.7354497 46.9549902,34.5365079 48.2935421,33.0698413 C49.6320939,31.6031746 50.6771037,29.9153439 51.4285714,28.0063492 C52.1800391,26.1439153 52.555773,24.1417989 52.555773,22 C52.555773,19.8582011 52.1800391,17.8560847 51.4285714,15.9936508 C50.6771037,14.0846561 49.6320939,12.3968254 48.2935421,10.9301587 C46.9549902,9.46349206 45.369863,8.26455026 43.5381605,7.33333333 C41.7064579,6.4021164 39.7573386,5.84338624 37.6908023,5.65714286 C37.3620352,5.65714286 37.0684932,5.64550265 36.8101761,5.62222222 L36.8101761,5.62222222 L36.6098337,5.60694444 C36.4028865,5.59384921 36.1761252,5.58730159 35.9295499,5.58730159 L35.9295499,5.58730159 Z M15.5694716,13.5492063 C13.4559687,15.0857143 11.6125245,16.6338624 10.0391389,18.1936508 C8.46575342,19.7534392 7.23287671,21.0222222 6.34050881,22 C7.23287671,22.9777778 8.46575342,24.2349206 10.0391389,25.7714286 C11.6125245,27.3079365 13.4559687,28.8910053 15.5694716,30.5206349 C15.0058708,29.2169312 14.5714286,27.8433862 14.2661448,26.4 C13.9608611,24.9566138 13.8082192,23.4899471 13.8082192,22 C13.8082192,20.5100529 13.9608611,19.0433862 14.2661448,17.6 C14.5714286,16.1566138 15.0058708,14.8063492 15.5694716,13.5492063 Z M56.4305284,13.5492063 C56.9941292,14.8063492 57.4285714,16.1566138 57.7338552,17.6 C58.0391389,19.0433862 58.1917808,20.5100529 58.1917808,22 C58.1917808,23.4899471 58.0391389,24.9566138 57.7338552,26.4 C57.4285714,27.8433862 56.9941292,29.2169312 56.4305284,30.5206349 C58.5440313,28.9375661 60.3874755,27.3661376 61.9608611,25.8063492 C63.5342466,24.2465608 64.7436399,22.9777778 65.5890411,22 C64.7436399,21.0222222 63.5342466,19.7650794 61.9608611,18.2285714 C60.3874755,16.6920635 58.5440313,15.1322751 56.4305284,13.5492063 Z" id="Combined-Shape-Copy" fill-rule="nonzero"></path>
                    <path d="M36,12 C37.5771101,12 39.0689488,12.3650899 40.395611,13.0153644 C40.2651245,13.0052062 40.1331703,13 40,13 C37.2385763,13 35,15.2385763 35,18 C35,20.7614237 37.2385763,23 40,23 C42.7614237,23 45,20.7614237 45,18 C45,17.8668297 44.9947938,17.7348755 44.9845739,17.6043296 C45.6349101,18.9310512 46,20.4228899 46,22 C46,27.5228475 41.5228475,32 36,32 C30.4771525,32 26,27.5228475 26,22 C26,16.4771525 30.4771525,12 36,12 Z" id="Combined-Shape"></path>
                </g>
                <polygon id="" fill-rule="nonzero" points="605.96592 66 631.057722 41.0290439 656.03408 65.8837209 661 60.9418605 635.936761 36 661 11.0581395 656.03408 6.11627907 631.057722 30.9717829 605.96592 6 601 10.8837209 626.12135 35.8842377 626.063291 35.9418605 626.12135 36.0008269 626.063291 36.0581395 626.12135 36.1165891 601 61.1162791"></polygon>
            </g>
            <g id="Group-3" transform="translate(1.000000, 144.000000)">
                <path d="M65.6551724,63 C67.4206897,62.8901322 68.9195402,62.1851475 70.1517241,60.8850458 C71.383908,59.584944 72,58.0376399 72,56.2431333 L72,56.2431333 L72,24.3814852 C71.8896552,22.5869786 71.1908046,21.076297 69.9034483,19.8494405 C68.616092,18.6225839 67.0712644,18.0091556 65.2689655,18.0091556 L65.2689655,18.0091556 L38.2344828,18.0091556 L29.2413793,9 L6.34482759,9 C4.57931034,9.10986775 3.08045977,9.81485249 1.84827586,11.1149542 C0.616091954,12.415056 0,13.9623601 0,15.7568667 L0,15.7568667 L0,56.6826043 C0.110344828,58.4404883 0.809195402,59.9328586 2.09655172,61.1597152 C3.38390805,62.3865717 4.92873563,63 6.73103448,63 L6.73103448,63 L65.6551724,63 Z M18.3172414,53.6063072 L16.4965517,53.6063072 C16.2758621,53.6063072 16.0735632,53.5147508 15.8896552,53.3316378 C15.7057471,53.1485249 15.6137931,52.9287894 15.6137931,52.6724313 L15.6137931,52.6724313 L15.6137931,49.8158698 C14.7310345,49.8158698 13.8666667,49.6602238 13.0206897,49.3489318 C12.1747126,49.0376399 11.4022989,48.5890132 10.7034483,48.0030519 C10.4827586,47.819939 10.3632184,47.5818922 10.3448276,47.2889115 C10.3264368,46.9959308 10.4275862,46.757884 10.6482759,46.5747711 L10.6482759,46.5747711 L12.5793103,44.5422177 C12.7264368,44.3957274 12.9103448,44.3041709 13.1310345,44.2675483 C13.3517241,44.2309257 13.5356322,44.2858596 13.6827586,44.4323499 C13.9770115,44.6154629 14.2896552,44.7619532 14.6206897,44.871821 C14.9517241,44.9816887 15.2827586,45.0366226 15.6137931,45.0366226 L15.6137931,45.0366226 L19.3655172,45.0366226 C19.8436782,45.0366226 20.2390805,44.8626653 20.5517241,44.5147508 C20.8643678,44.1668362 21.0206897,43.7548321 21.0206897,43.2787386 C21.0206897,42.8758901 20.9103448,42.5188199 20.6896552,42.207528 C20.4689655,41.896236 20.1931034,41.6856562 19.862069,41.5757884 L19.862069,41.5757884 L14.0689655,39.8179044 C12.8183908,39.415056 11.7425287,38.6917599 10.8413793,37.6480163 C9.94022989,36.6042726 9.43448276,35.404883 9.32413793,34.0498474 C9.14022989,32.1088505 9.67356322,30.4333672 10.9241379,29.0233978 C12.1747126,27.6134283 13.6827586,26.9084435 15.4482759,26.9084435 L15.4482759,26.9084435 L15.6137931,26.9084435 L15.6137931,24.051882 C15.6137931,23.7955239 15.7057471,23.5757884 15.8896552,23.3926755 C16.0735632,23.2095626 16.2758621,23.1180061 16.4965517,23.1180061 L16.4965517,23.1180061 L18.3172414,23.1180061 C18.5747126,23.1180061 18.7954023,23.2095626 18.9793103,23.3926755 C19.1632184,23.5757884 19.2551724,23.7955239 19.2551724,24.051882 L19.2551724,24.051882 L19.2551724,26.9084435 C20.137931,26.9084435 20.9931034,27.0640895 21.8206897,27.3753815 C22.6482759,27.6866734 23.4114943,28.1353001 24.1103448,28.7212614 C24.3310345,28.9043744 24.4505747,29.1424212 24.4689655,29.4354018 C24.4873563,29.7283825 24.4045977,29.9664293 24.2206897,30.1495422 L24.2206897,30.1495422 L22.2344828,32.1820956 C22.0873563,32.328586 21.9126437,32.4201424 21.7103448,32.456765 C21.508046,32.4933876 21.3149425,32.4384537 21.1310345,32.2919634 C20.8735632,32.1088505 20.5793103,31.9623601 20.2482759,31.8524924 C19.9172414,31.7426246 19.5678161,31.6876907 19.2,31.6876907 L19.2,31.6876907 L15.4482759,31.6876907 C15.0068966,31.6876907 14.6206897,31.861648 14.2896552,32.2095626 C13.9586207,32.5574771 13.7931034,32.9694812 13.7931034,33.4455748 C13.7931034,33.8118006 13.9034483,34.1597152 14.1241379,34.4893184 C14.3448276,34.8189217 14.6390805,35.0386572 15.0068966,35.1485249 L15.0068966,35.1485249 L21.1310345,37.0162767 C22.7494253,37.5289929 23.9816092,38.6093591 24.8275862,40.2573754 C25.6735632,41.9053917 25.8022989,43.6449644 25.2137931,45.4760936 C24.7724138,46.7945066 23.9908046,47.8382503 22.8689655,48.6073245 C21.7471264,49.3763988 20.5425287,49.7792472 19.2551724,49.8158698 L19.2551724,49.8158698 L19.2551724,52.6724313 C19.2551724,52.9287894 19.1632184,53.1485249 18.9793103,53.3316378 C18.7954023,53.5147508 18.5747126,53.6063072 18.3172414,53.6063072 L18.3172414,53.6063072 Z M62.7310345,32.5116989 L37.1862069,32.5116989 L37.1862069,27.7873856 L62.7310345,27.7873856 L62.7310345,32.5116989 Z M62.7310345,41.9053917 L37.1862069,41.9053917 L37.1862069,37.1810783 L62.7310345,37.1810783 L62.7310345,41.9053917 Z M62.7310345,51.2990844 L37.1862069,51.2990844 L37.1862069,46.5747711 L62.7310345,46.5747711 L62.7310345,51.2990844 Z" id="" fill-rule="nonzero"></path>
                <path d="M190.783616,72.0000858 C191.506831,72.0000858 192.069332,71.4375852 192.069332,70.71437 L192.069332,63.6831116 C200.587199,62.27686 206.453277,55.8081022 206.453277,47.6116639 C206.453277,39.0604014 199.935572,35.5227583 193.320199,32.8478485 L192.736399,32.6139603 C192.347248,32.4593867 191.958413,32.3073759 191.5712,32.157083 L190.99176,31.9328265 C190.895444,31.8956299 190.79927,31.8585143 190.703259,31.8214665 C184.997895,29.6116424 180.096103,27.7232473 180.096103,23.4643137 C180.096103,19.8080593 183.631822,17.2768063 188.734506,17.2768063 C194.761299,17.2768063 199.622912,21.5759186 199.663091,21.6160972 C199.98452,21.8571689 200.346127,21.9777048 200.747913,21.8973475 C201.1497,21.8571689 201.471129,21.6160972 201.672022,21.2544896 L204.92649,15.3884112 C205.20774,14.9062678 205.127383,14.3035885 204.725597,13.8616237 C204.564882,13.7009092 200.225591,9.28126106 192.069332,8.35715282 L192.069332,1.28571582 C192.069332,0.562500671 191.506831,0 190.783616,0 L185.359502,0 C184.676466,0 184.073786,0.562500671 184.073786,1.28571582 L184.073786,8.5178673 C175.676455,10.1250121 169.890734,16.2321622 169.890734,23.6250282 C169.890734,33.1992371 178.002424,36.9431686 185.012142,39.7386886 L185.570394,39.9603995 C185.755578,40.0336905 185.939804,40.1063995 186.122896,40.1786193 C191.54701,42.3482648 196.288087,44.2366599 196.288087,48.0938073 C196.288087,52.6339913 192.029153,54.7232795 188.091648,54.7232795 C180.980033,54.7232795 175.355026,49.3393445 175.274669,49.2991659 C175.033597,49.0179156 174.671989,48.8973797 174.310382,48.9375583 C173.948774,48.977737 173.587167,49.1384514 173.386274,49.4197018 L169.247876,54.8438154 C168.886268,55.3259588 168.926447,56.0089953 169.328233,56.4911388 C169.529126,56.7322105 174.671989,62.3572172 184.073786,63.6831116 L184.073786,70.71437 C184.073786,71.4375852 184.676466,72.0000858 185.359502,72.0000858 L190.783616,72.0000858 Z" id="" fill-rule="nonzero"></path>
                <path d="M350.307301,22.2890625 L350.439845,22.5635002 C351.184782,24.0349535 352.53826,25.6309743 354.500277,27.3515625 C356.537542,29.2265625 358.634031,31.40625 360.789742,33.890625 C362.945453,36.375 364.876117,39.28125 366.581734,42.609375 C368.239974,45.9375 369.045404,49.875 368.998026,54.421875 C368.998026,58.125 368.311041,61.125 366.937071,63.421875 C365.563102,65.71875 363.656127,67.5 361.216146,68.765625 C358.776165,70.03125 355.850558,70.8984375 352.439323,71.3671875 C349.271747,71.7589286 345.777358,71.9687899 341.956156,71.9967714 L341.068539,72 L340.5,72 L339.59244,71.9967714 C335.686393,71.9687899 332.127584,71.7589286 328.916014,71.3671875 C325.410023,70.9453125 322.413348,70.1015625 319.925989,68.8359375 C317.43863,67.5703125 315.507966,65.7890625 314.133996,63.4921875 C312.760026,61.1953125 312.049352,58.171875 312.001974,54.421875 C311.954596,49.875 312.760026,45.9375 314.418266,42.609375 C316.123883,39.28125 318.054547,36.3632812 320.210258,33.8554688 C322.365969,31.3476562 324.462458,29.1796875 326.499723,27.3515625 C328.46174,25.6309743 329.815218,24.0349535 330.560155,22.5635002 L330.692699,22.2890625 L350.307301,22.2890625 Z M341.887558,31 L339.425559,31 C339.11553,31 338.841974,31.25 338.841974,31.5714286 L338.841974,34.7857143 C335.030435,35.5 332.404303,38.2142857 332.404303,41.5 C332.404303,45.9821429 336.489398,47.5892857 339.772063,48.8571429 C342.234062,49.8214286 344.386032,50.6607143 344.386032,52.375 C344.386032,54.3928571 342.452906,55.3214286 340.665677,55.3214286 C337.437723,55.3214286 334.884539,52.9285714 334.848065,52.9107143 C334.738643,52.7857143 334.57451,52.7321429 334.410376,52.75 C334.246243,52.7678571 334.08211,52.8392857 333.990925,52.9642857 L332.112511,55.375 C331.948377,55.5892857 331.966614,55.8928571 332.148985,56.1071429 C332.24017,56.2142857 334.57451,58.7142857 338.841974,59.3035714 L338.841974,62.4285714 C338.841974,62.75 339.11553,63 339.425559,63 L341.887558,63 C342.215825,63 342.471143,62.75 342.471143,62.4285714 L342.471143,59.3035714 C346.337394,58.6785714 349,55.8035714 349,52.1607143 C349,47.8571429 345.206698,46.4107143 341.851084,45.1428571 C339.261426,44.1607143 337.036509,43.3214286 337.036509,41.4285714 C337.036509,39.8035714 338.641367,38.6785714 340.95747,38.6785714 C343.693024,38.6785714 345.899705,40.5892857 345.917942,40.6071429 C346.063838,40.7142857 346.227971,40.7678571 346.410342,40.7321429 C346.592712,40.7142857 346.738608,40.6071429 346.829793,40.4464286 L348.306993,37.8392857 C348.434652,37.625 348.398178,37.3571429 348.215808,37.1607143 C348.14286,37.0892857 346.17326,35.125 342.471143,34.7142857 L342.471143,31.5714286 C342.471143,31.25 342.215825,31 341.887558,31 Z M348.885953,16.59375 L349.057041,16.6006944 C349.506257,16.6377315 349.899321,16.8229167 350.236233,17.15625 C350.615259,17.53125 350.804772,17.9765625 350.804772,18.4921875 C350.804772,18.9609375 350.638949,19.3710938 350.307301,19.7226562 C349.975653,20.0742188 349.572938,20.2734375 349.099155,20.3203125 L349.099155,20.3203125 L332.04298,20.3203125 L331.850876,20.3120728 C331.410406,20.2736206 331.024347,20.1005859 330.692699,19.7929688 C330.313673,19.4414062 330.12416,19.0078125 330.12416,18.4921875 C330.12416,17.9765625 330.289984,17.5429688 330.621632,17.1914062 C330.95328,16.8398438 331.355995,16.6640625 331.829778,16.6640625 L331.829778,16.6640625 L332.04298,16.59375 L348.885953,16.59375 Z M340.78427,0 L340.922409,0.00104012574 C341.502723,0.00936113166 342.416086,0.0676081731 343.662499,0.17578125 C345.01278,0.29296875 345.853744,0.609375 346.185392,1.125 C346.753931,1.96875 346.564418,3.28125 345.616853,5.0625 C344.669287,6.84375 344.148126,8.15625 344.05337,9 C345.522096,8.90625 346.611796,7.921875 347.32247,6.046875 C348.033144,4.171875 348.649061,3 349.170222,2.53125 C349.691383,2.015625 350.59157,1.96875 351.870783,2.390625 C353.149997,2.8125 354.121251,3.2109375 354.784547,3.5859375 C357.437729,4.8515625 357.710154,5.7890625 355.601822,6.3984375 C353.493489,7.0078125 351.704959,9.5859375 350.236233,14.1328125 L350.236233,14.1328125 L350.165166,14.484375 L331.119104,14.484375 L331.119104,14.5546875 C329.697756,9.7734375 328.07505,7.30078125 326.250987,7.13671875 C324.426924,6.97265625 324.486147,5.7890625 326.428656,3.5859375 C326.997195,2.9296875 327.956605,2.47265625 329.306885,2.21484375 C330.657166,1.95703125 331.592886,2.0625 332.114047,2.53125 C332.58783,3.046875 333.191903,4.23046875 333.926266,6.08203125 C334.660629,7.93359375 335.738484,8.90625 337.159832,9 C337.065076,8.203125 336.543915,6.90234375 335.59635,5.09765625 C334.648784,3.29296875 334.459271,1.96875 335.02781,1.125 C335.359458,0.609375 336.200423,0.29296875 337.550703,0.17578125 C338.900984,0.05859375 339.884083,0 340.5,0 L340.5,0 L340.78427,0 Z" id="Combined-Shape" fill-rule="nonzero"></path>
                <path d="M514.105382,7.12513085 C514.952916,6.89412005 515.775884,6.98297036 516.574286,7.39168177 C517.439221,7.83445247 518.025455,8.51785942 518.332987,9.44190262 L518.332987,9.44190262 L527.847273,38.7225215 L527.907137,38.9529307 C528.099479,39.7955587 527.99303,40.6139224 527.587792,41.4080221 C527.145714,42.2743126 526.463377,42.861465 525.540779,43.1694794 L525.540779,43.1694794 L513.892987,46.9811576 L513.892987,61.4193326 L513.886845,61.6476095 C513.837713,62.5497819 513.493786,63.3207292 512.855065,63.9604514 C512.163117,64.6534838 511.317403,65 510.317922,65 L510.317922,65 L459.517403,65 L459.279946,64.9927809 C458.419549,64.9398409 457.672208,64.5957311 457.037922,63.9604514 C456.345974,63.267419 456,62.4203794 456,61.4193326 L456,61.4193326 L456,30.6948962 L456.006142,30.4666193 C456.055274,29.5644469 456.399201,28.7934996 457.037922,28.1537774 C457.72987,27.460745 458.556364,27.1142288 459.517403,27.1142288 L459.517403,27.1142288 L463.207792,27.1142288 L463.163235,26.8736721 C463.040921,26.0749984 463.180708,25.3081444 463.582597,24.57311 C464.024675,23.7645722 464.687792,23.2062961 465.571948,22.8982817 L465.571948,22.8982817 L513.892987,7.18954732 Z M470.184935,51.5285572 L460.728312,51.5285572 L460.728312,55.0514719 L470.184935,55.0514719 L470.184935,51.5285572 Z M482.005714,51.5285572 L472.549091,51.5285572 L472.549091,55.0514719 L482.005714,55.0514719 L482.005714,51.5285572 Z M493.768831,51.5285572 L484.36987,51.5285572 L484.36987,55.0514719 L493.768831,55.0514719 L493.768831,51.5285572 Z M505.58961,51.5285572 L496.132987,51.5285572 L496.132987,55.0514719 L505.58961,55.0514719 L505.58961,51.5285572 Z M468.974026,40.8443077 L461.881558,40.8443077 L461.748615,40.853131 C461.529711,40.8825421 461.324156,40.985481 461.131948,41.1619476 C460.901299,41.3737075 460.766753,41.6143437 460.728312,41.8838563 L460.728312,41.8838563 L460.728312,46.7928358 L460.73632,46.9428324 C460.763016,47.1861424 460.85645,47.3960307 461.016623,47.5724973 C461.208831,47.7842572 461.458701,47.909388 461.766234,47.9478898 L461.766234,47.9478898 L468.974026,47.9478898 C469.281558,47.9478898 469.550649,47.8516353 469.781299,47.6591263 C470.011948,47.4666173 470.146494,47.2163556 470.184935,46.9083412 L470.184935,46.9083412 L470.184935,42.0571144 L470.177874,41.9121433 C470.149632,41.629273 470.03666,41.3888332 469.838961,41.1908239 C469.608312,40.9598131 469.32,40.8443077 468.974026,40.8443077 L468.974026,40.8443077 Z M519.543896,20.8191845 L500.054026,27.1142288 L510.317922,27.1142288 L510.545842,27.12038 C511.446603,27.1695894 512.216344,27.5140552 512.855065,28.1537774 C513.547013,28.8468098 513.892987,29.6938494 513.892987,30.6948962 L513.892987,30.6948962 L513.892987,44.4977915 L524.791169,40.9171241 L524.918261,40.8782294 C525.163032,40.7886538 525.351317,40.6283606 525.483117,40.3973498 C525.636883,40.1278372 525.675325,39.8583246 525.598442,39.588812 L525.598442,39.588812 L525.598442,39.4733066 L519.543896,20.8191845 Z M514.892468,9.37292023 L514.757922,9.38414992 L514.584935,9.44190262 L466.321558,25.150637 L466.174199,25.2140046 C465.939278,25.3289752 465.757749,25.4907362 465.62961,25.6992877 C465.475844,25.9495494 465.437403,26.2286874 465.514286,26.5367018 L465.514286,26.5367018 L465.571948,26.6522072 L465.687273,27.1142288 L469.435325,27.1142288 L516.603117,11.8097633 L516.084156,10.1926877 L516.037706,10.0627441 C515.946941,9.85419273 515.789437,9.68574736 515.565195,9.55740802 C515.296104,9.40340082 515.027013,9.34564812 514.757922,9.38414992 Z" id="Combined-Shape" fill-rule="nonzero"></path>
                <g id="shield" transform="translate(609.000000, 0.000000)">
                    <path d="M28.8,0 L57.6,10.8 L57.6,36 C57.6,56.952 30.50208,71.12952 28.8762048,71.9613144 L28.8085824,71.9956872 L28.8085824,71.9956872 L28.8,72 C28.8,72 28.79712,71.99856 28.7914176,71.9956872 L28.7237952,71.9613144 C27.09792,71.12952 0,56.952 0,36 L0,36 L0,10.8 L28.8,0 Z M41.4116129,21.6 C40.7922581,21.6 40.2658065,21.8121212 39.8322581,22.2363636 L39.8322581,22.2363636 L24.596129,37.1681818 L17.7677419,30.4636364 C17.3341935,30.0393939 16.8077419,29.8272727 16.1883871,29.8272727 C15.5690323,29.8272727 15.0425806,30.0393939 14.6090323,30.4636364 L14.6090323,30.4636364 L11.4503226,33.5545455 C11.0167742,33.9787879 10.8,34.4939394 10.8,35.1 C10.8,35.7060606 11.0167742,36.2212121 11.4503226,36.6454545 L11.4503226,36.6454545 L19.8580645,44.8727273 L23.0167742,47.9636364 C23.4503226,48.3878788 23.9767742,48.6 24.596129,48.6 C25.2154839,48.6 25.7419355,48.3878788 26.1754839,47.9636364 L26.1754839,47.9636364 L29.3341935,44.8727273 L46.1496774,28.4181818 C46.5832258,27.9939394 46.8,27.4787879 46.8,26.8727273 C46.8,26.2666667 46.5832258,25.7515152 46.1496774,25.3272727 L46.1496774,25.3272727 L42.9909677,22.2363636 C42.5574194,21.8121212 42.0309677,21.6 41.4116129,21.6 Z" id="Combined-Shape"></path>
                </g>
            </g>
            <g id="Group-4" transform="translate(0.000000, 288.000000)" fill-rule="nonzero">
                <path d="M492.000036,55.4286327 C492.535751,55.4286327 493.071466,55.2277396 493.473252,54.8259534 L514.332652,34.7366438 C514.370319,34.6989763 514.518373,34.5608623 514.748629,34.3323072 L514.936292,34.1440895 C516.756055,32.3003245 522.000072,26.4498035 522.000072,19.6696615 C522.000072,9.85938198 516.006761,4 505.995588,4 C500.136206,4 494.645128,8.62054122 492.000036,11.2321515 C489.354943,8.62054122 483.863865,4 478.004483,4 C467.993311,4 462,9.85938198 462,19.6696615 C462,27.7053854 469.36608,34.4353041 469.633938,34.6696794 L490.52682,54.8259534 C490.928606,55.2277396 491.464321,55.4286327 492.000036,55.4286327 Z" id=""></path>
                <path d="M646.181818,35.5 C653.545455,35.5 668,39.075 668,46.5 L668,46.5 L668,52 L624.363636,52 L624.363636,46.5 C624.363636,39.075 638.818182,35.5 646.181818,35.5 Z M618,25.416 L618,38.0520833 C618,38.122847 618.00223,38.1895744 618.006493,38.2522902 L611.181818,38.25 C610.473262,38.25 609.890532,37.7044406 609.824427,37.0073784 L609.818182,36.875 L609.818182,30.9166667 L608.454545,30.9166667 C608.227273,30.9166667 608.044893,30.7582305 608.00717,30.5419524 L608,30.4583333 L608,25.875 C608,25.6458333 608.157127,25.4619342 608.371617,25.4238969 L608.454545,25.4166667 L618,25.416 Z M629.363636,25.4166667 C629.590909,25.4166667 629.773288,25.5751029 629.811011,25.7913809 L629.818182,25.875 L629.818182,30.4583333 C629.818182,30.6875 629.661055,30.8713992 629.446564,30.9094364 L629.363636,30.9166667 L628,30.9166667 L628,36.875 C628,37.5894608 627.458949,38.1770473 626.767648,38.2437029 L626.636364,38.25 L619.993507,38.2522902 L619.998352,38.1552047 L619.998352,38.1552047 L620,38.0520833 L620,25.416 L629.363636,25.4166667 Z M646.181818,9 C652.206743,9 657.090909,13.9248678 657.090909,20 C657.090909,26.0751322 652.206743,31 646.181818,31 C640.156894,31 635.272727,26.0751322 635.272727,20 C635.272727,13.9248678 640.156894,9 646.181818,9 Z M623.113636,18 C624.875,18 626.295455,19.4322917 626.295455,21.2083333 C626.295455,22.407776 625.647596,23.4504369 624.684401,24.0010235 L613.13378,24.0010235 C612.170586,23.4504369 611.522727,22.407776 611.522727,21.2083333 C611.522727,19.4322917 612.943182,18 614.704545,18 C615.588271,18 616.410758,18.3457961 616.967292,18.9571143 L617.090909,19.1028646 L618.909091,21.4661458 L620.727273,19.1028646 C621.28125,18.4010417 622.161932,18 623.113636,18 Z M614.704545,19.8333333 C613.951705,19.8333333 613.340909,20.4492188 613.340909,21.2083333 C613.340909,21.9227941 613.88196,22.5103806 614.573261,22.5770363 L614.704545,22.5833333 L617.474432,22.5833333 L615.684659,20.2773438 C615.528409,20.0911458 615.1875,19.8333333 614.704545,19.8333333 Z M623.113636,19.8333333 C622.684343,19.8333333 622.367284,20.037037 622.192387,20.2130773 L622.133523,20.2773438 L620.357955,22.5833333 L623.113636,22.5833333 C623.866477,22.5833333 624.477273,21.9674479 624.477273,21.2083333 C624.477273,20.4492188 623.866477,19.8333333 623.113636,19.8333333 Z" id="Combined-Shape"></path>
                <g id="account-group" transform="translate(0.000000, 8.000000)">
                    <path d="M36,0.3 C41.7989899,0.3 46.5,5.00101013 46.5,10.8 C46.5,16.5989899 41.7989899,21.3 36,21.3 C30.2010101,21.3 25.5,16.5989899 25.5,10.8 C25.5,5.00101013 30.2010101,0.3 36,0.3 M15,7.8 C16.68,7.8 18.24,8.25 19.59,9.06 C19.14,13.35 20.4,17.61 22.98,20.94 C21.48,23.82 18.48,25.8 15,25.8 C10.0294373,25.8 6,21.7705627 6,16.8 C6,11.8294373 10.0294373,7.8 15,7.8 M57,7.8 C61.9705627,7.8 66,11.8294373 66,16.8 C66,21.7705627 61.9705627,25.8 57,25.8 C53.52,25.8 50.52,23.82 49.02,20.94 C51.6,17.61 52.86,13.35 52.41,9.06 C53.76,8.25 55.32,7.8 57,7.8 M16.5,38.55 C16.5,32.34 25.23,27.3 36,27.3 C46.77,27.3 55.5,32.34 55.5,38.55 L55.5,43.8 L16.5,43.8 L16.5,38.55 M0,43.8 L0,39.3 C0,35.13 5.67,31.62 13.35,30.6 C11.58,32.64 10.5,35.46 10.5,38.55 L10.5,43.8 L0,43.8 M72,43.8 L61.5,43.8 L61.5,38.55 C61.5,35.46 60.42,32.64 58.65,30.6 C66.33,31.62 72,35.13 72,39.3 L72,43.8 Z" id="Shape"></path>
                </g>
                <path d="M214.649016,59.6340453 C215.38935,58.2635978 215.993306,56.7756833 216.460885,55.170302 C216.928464,53.5649206 217.279149,51.9693281 217.512938,50.3835245 C217.746728,48.7977209 217.902588,47.3000176 217.980518,45.8904144 C218.019482,44.5199669 218,43.3844532 217.92207,42.4838734 C216.714157,41.5832936 215.350385,40.7414473 213.830752,39.9583344 C212.272155,39.2143771 210.65511,38.568309 208.979618,38.02013 C207.304126,37.471951 205.648117,37.0608167 204.01159,36.7867272 C202.336098,36.5126377 200.796983,36.4147486 199.394245,36.4930599 C198.614947,37.2370171 197.631082,38.3627419 196.442652,39.8702342 C195.254221,41.3777265 194.426216,42.640496 193.958637,43.6585427 C192.32211,43.2278306 190.510241,42.2195728 188.523029,40.6337692 C186.535818,39.0479657 184.568089,37.3544841 182.619842,35.5533245 C180.671596,33.7521649 178.947397,31.8531161 177.447247,29.8561783 C175.947098,27.8592405 174.982716,25.9601918 174.554101,24.1590322 C175.450295,23.6891644 176.67769,22.857107 178.236287,21.6628599 C179.794885,20.4686127 180.94435,19.4799327 181.684684,18.6968199 C181.762614,17.2872167 181.665201,15.7601466 181.392447,14.1156095 C181.119692,12.4710725 180.71056,10.8265355 180.165051,9.18199844 C179.619542,7.53746141 178.976621,5.93208002 178.236287,4.36585427 C177.456989,2.79962852 176.619243,1.37044753 175.723049,0.0783112874 C174.826856,0 173.67739,-0.0195778218 172.274653,0.0195778218 C170.91088,0.0195778218 169.430213,0.127255842 167.832651,0.342611882 C166.235088,0.557967922 164.618044,0.881001983 162.981517,1.31171406 C161.34499,1.74242614 159.805875,2.3297608 158.364172,3.07371803 C158.013488,4.95318893 157.916076,7.28294973 158.071935,10.0630004 C158.26676,12.8822068 158.948646,16.0048694 160.117594,19.4309882 C161.286542,22.857107 163.078929,26.5475264 165.494755,30.5022464 C167.871616,34.4961221 171.086222,38.5878869 175.138575,42.7775407 C179.307823,46.8497277 183.360176,50.0800683 187.295634,52.4685625 C191.231092,54.8570568 194.913278,56.6484275 198.342192,57.8426746 C201.771106,59.0369218 204.868818,59.7319344 207.635328,59.9277127 C210.440803,60.0843352 212.778699,59.9864461 214.649016,59.6340453 Z" id=""></path>
                <path d="M339.818731,31.5188679 C340.882175,31.5188679 341.752266,31.2777778 342.429003,30.7955975 L342.429003,30.7955975 L354.97281,21.827044 C355.649547,21.2966457 356.519637,20.6698113 357.583082,19.9465409 C358.646526,19.2232704 359.516616,18.548218 360.193353,17.9213836 L360.193353,17.9213836 L373.099698,8.88050314 C373.728097,8.39832285 374.018127,7.96436059 373.969789,7.57861635 C373.92145,7.19287212 373.413897,7 372.44713,7 L372.44713,7 L336.628399,7 L307.190332,7.28930818 C306.416918,7.28930818 305.957704,7.43396226 305.812689,7.72327044 C305.667674,8.01257862 305.933535,8.39832285 306.610272,8.88050314 L306.610272,8.88050314 L319.516616,17.9213836 C320.145015,18.4035639 320.990937,19.0062893 322.054381,19.7295597 C323.117825,20.4528302 323.987915,21.1519916 324.664653,21.827044 L324.664653,21.827044 L337.208459,30.7955975 C337.885196,31.2777778 338.755287,31.5188679 339.818731,31.5188679 Z M372.73716,53 C373.703927,53 374.489426,52.6745283 375.093656,52.0235849 C375.697885,51.3726415 376,50.6373166 376,49.8176101 L376,49.8176101 L376,14.0880503 C376,14.0880503 375.722054,14.2809224 375.166163,14.6666667 C374.610272,15.0524109 374.018127,15.4863732 373.389728,15.9685535 L373.389728,15.9685535 L360.193353,25.009434 C359.516616,25.6362683 358.646526,26.3113208 357.583082,27.0345912 C356.519637,27.7578616 355.649547,28.360587 354.97281,28.8427673 L354.97281,28.8427673 L342.429003,37.8836478 C341.752266,38.3658281 340.882175,38.6069182 339.818731,38.6069182 C338.755287,38.6069182 337.885196,38.3658281 337.208459,37.8836478 L337.208459,37.8836478 L324.664653,28.8427673 C323.987915,28.2159329 323.117825,27.5408805 322.054381,26.8176101 C320.990937,26.0943396 320.145015,25.4916143 319.516616,25.009434 L319.516616,25.009434 L306.610272,15.9685535 C305.933535,15.4863732 305.329305,15.0524109 304.797583,14.6666667 C304.265861,14.2809224 304,14.0880503 304,14.0880503 L304,14.0880503 L304,49.8176101 C304,50.6373166 304.338369,51.3726415 305.015106,52.0235849 C305.691843,52.6745283 306.416918,53 307.190332,53 L307.190332,53 L372.73716,53 Z" id=""></path>
            </g>
            <g id="Group-5" transform="translate(4.000000, 420.000000)" fill-rule="nonzero">
                <path d="M503.196429,60 C509.325,60 514,55.3272251 514,49.2015707 C514,45.7460733 512.546429,42.408377 510.071429,39.973822 L487.246429,17.1596859 C485.714286,15.5890052 483.592857,14.6858639 481.392857,14.6858639 C477.071429,14.6858639 473.692857,18.0628272 473.692857,22.382199 C473.692857,24.5418848 474.596429,26.7015707 476.167857,28.2329843 L492.275,44.3324607 C492.510714,44.5680628 492.825,44.7251309 493.139286,44.7251309 C493.964286,44.7251309 496.203571,42.486911 496.203571,41.6623037 C496.203571,41.3481675 496.046429,41.0340314 495.810714,40.7984293 L479.703571,24.6989529 C479.114286,24.0706806 478.721429,23.2460733 478.721429,22.382199 C478.721429,20.8507853 479.860714,19.7513089 481.353571,19.7513089 C482.217857,19.7513089 483.082143,20.104712 483.710714,20.6937173 L506.535714,43.5078534 C508.028571,45 509.010714,47.0418848 509.010714,49.2015707 C509.010714,52.539267 506.535714,55.013089 503.196429,55.013089 C501.075,55.013089 498.992857,54.0314136 497.5,52.539267 L467.014286,22.0287958 C465.128571,20.1439791 464.028571,17.591623 464.028571,14.921466 C464.028571,9.38481675 468.35,4.86910995 473.928571,4.86910995 C476.6,4.86910995 479.153571,6.04712042 481.039286,7.89267016 L504.846429,31.7277487 C505.082143,31.9633508 505.396429,32.1204188 505.75,32.1204188 C506.575,32.1204188 508.775,29.921466 508.775,29.0968586 C508.775,28.7827225 508.617857,28.4685864 508.382143,28.2329843 L484.614286,4.43717277 C481.746429,1.60994764 477.896429,0 473.889286,0 C465.560714,0 459,6.63612565 459,14.960733 C459,18.9267016 460.65,22.7748691 463.439286,25.6020942 L493.964286,56.0732984 C496.4,58.5078534 499.739286,60 503.196429,60 Z" id=""></path>
                <path d="M341.583333,0 C343.296046,0 345.656535,0.94573218 346.957027,2.1091769 L347.135417,2.27678571 L357.697917,12.7232143 C358.893584,13.9057427 359.904173,16.2170482 359.993574,17.9681253 L360,18.2142857 L360,56.7857143 C360,58.4990764 358.642935,59.90031 356.934361,59.9949095 L356.75,60 L311.25,60 C309.517601,60 308.100798,58.6578478 308.005147,56.9680491 L308,56.7857143 L308,3.21428571 C308,1.50092365 309.357065,0.0996899949 311.065639,0.00509048283 L311.25,0 L341.583333,0 Z M338.333333,4.28571429 L312.333333,4.28571429 L312.333333,55.7142857 L355.666667,55.7142857 L355.666667,21.4285714 L341.583333,21.4285714 C339.850934,21.4285714 338.434131,20.0864192 338.33848,18.3966205 L338.333333,18.2142857 L338.333333,4.28571429 Z M345.916667,42.8571429 C346.526042,42.8571429 347,43.3258929 347,43.9285714 L347,43.9285714 L347,46.0714286 C347,46.6741071 346.526042,47.1428571 345.916667,47.1428571 L345.916667,47.1428571 L322.083333,47.1428571 C321.473958,47.1428571 321,46.6741071 321,46.0714286 L321,46.0714286 L321,43.9285714 C321,43.3258929 321.473958,42.8571429 322.083333,42.8571429 L322.083333,42.8571429 Z M345.916667,34.2857143 C346.526042,34.2857143 347,34.7544643 347,35.3571429 L347,35.3571429 L347,37.5 C347,38.1026786 346.526042,38.5714286 345.916667,38.5714286 L345.916667,38.5714286 L322.083333,38.5714286 C321.473958,38.5714286 321,38.1026786 321,37.5 L321,37.5 L321,35.3571429 C321,34.7544643 321.473958,34.2857143 322.083333,34.2857143 L322.083333,34.2857143 Z M330.598769,22.3794893 C330.76804,22.3794893 330.937311,22.4464536 331.059186,22.5669893 L331.059186,22.5669893 L331.980019,23.4777036 C332.101894,23.5982393 332.169603,23.76565 332.169603,23.9330607 C332.169603,24.1004715 332.101894,24.2678822 331.980019,24.3884179 L331.980019,24.3884179 L327.077936,29.2366322 L326.157103,30.1473465 C326.035228,30.2678822 325.865957,30.3348465 325.696686,30.3348465 C325.527415,30.3348465 325.358144,30.2678822 325.236269,30.1473465 L325.236269,30.1473465 L324.315436,29.2366322 L321.864394,26.812525 C321.742519,26.6919893 321.674811,26.5245786 321.674811,26.3571679 C321.674811,26.1897572 321.742519,26.0223465 321.864394,25.9018107 L321.864394,25.9018107 L322.785228,24.9910965 C322.907103,24.8705607 323.076374,24.8035965 323.245644,24.8035965 C323.414915,24.8035965 323.584186,24.8705607 323.706061,24.9910965 L323.706061,24.9910965 L325.696686,26.9665429 L330.138353,22.5669893 C330.260228,22.4464536 330.429499,22.3794893 330.598769,22.3794893 Z M342.666667,4.55357143 L342.666667,17.1428571 L355.395833,17.1428571 C355.215278,16.6369048 354.954475,16.1309524 354.73231,15.8601558 L354.651042,15.7700893 L344.054688,5.29017857 C343.817708,5.05580357 343.242188,4.75446429 342.666667,4.55357143 Z" id="Combined-Shape"></path>
                <path d="M648.75,60 C652.1875,60 655,56.328125 655,52.03125 L655,15 L658.75,15 C659.453125,15 660,14.453125 660,13.75 L660,11.25 C660,10.546875 659.453125,10 658.75,10 L646.679688,10 L643.945312,3.4765625 C643.164062,1.5625 640.820312,0 638.75,0 L626.25,0 C624.179688,0 621.835938,1.5625 621.054688,3.4765625 L618.320312,10 L606.25,10 C605.546875,10 605,10.546875 605,11.25 L605,13.75 C605,14.453125 605.546875,15 606.25,15 L610,15 L610,52.1875 C610,56.484375 612.8125,60 616.25,60 L648.75,60 Z M641.25,10 L623.75,10 L625.664062,5.4296875 C625.78125,5.2734375 626.09375,5.0390625 626.328125,5 L638.710938,5 C638.90625,5.0390625 639.257812,5.2734375 639.375,5.4296875 L641.25,10 Z M648.75,55 L616.25,55 C616.054688,55 615,53.90625 615,52.03125 L615,15 L650,15 L650,52.03125 C650,53.90625 648.945312,55 648.75,55 Z M623.75,47.5 C624.453125,47.5 625,46.953125 625,46.25 L625,23.75 C625,23.046875 624.453125,22.5 623.75,22.5 L621.25,22.5 C620.546875,22.5 620,23.046875 620,23.75 L620,46.25 C620,46.953125 620.546875,47.5 621.25,47.5 L623.75,47.5 Z M633.75,47.5 C634.453125,47.5 635,46.953125 635,46.25 L635,23.75 C635,23.046875 634.453125,22.5 633.75,22.5 L631.25,22.5 C630.546875,22.5 630,23.046875 630,23.75 L630,46.25 C630,46.953125 630.546875,47.5 631.25,47.5 L633.75,47.5 Z M643.75,47.5 C644.453125,47.5 645,46.953125 645,46.25 L645,23.75 C645,23.046875 644.453125,22.5 643.75,22.5 L641.25,22.5 C640.546875,22.5 640,23.046875 640,23.75 L640,46.25 C640,46.953125 640.546875,47.5 641.25,47.5 L643.75,47.5 Z" id=""></path>
                <path d="M189.673441,54 C195.021724,54 199.360897,49.693892 199.360897,44.3863636 L199.360897,38.0440341 C199.360897,37.6100852 199.091801,37.2428977 198.688157,37.0759943 C198.284513,36.9090909 197.847232,36.9758523 197.510862,37.3096591 L195.358094,39.4460227 C195.156272,39.6463068 195.055361,39.9133523 195.055361,40.1803977 L195.055361,44.3863636 C195.055361,47.3238636 192.633497,49.7272727 189.673441,49.7272727 L161.687456,49.7272727 C158.7274,49.7272727 156.305536,47.3238636 156.305536,44.3863636 L156.305536,16.6136364 C156.305536,13.6761364 158.7274,11.2727273 161.687456,11.2727273 L189.673441,11.2727273 C190.177996,11.2727273 190.682551,11.3394886 191.187106,11.4730114 C191.557113,11.6065341 191.960757,11.506392 192.26349,11.2059659 L193.911703,9.5703125 C194.180799,9.30326705 194.28171,8.96946023 194.214436,8.60227273 C194.147162,8.26846591 193.911703,7.96803977 193.60897,7.83451705 C192.364401,7.26704545 191.018921,7 189.673441,7 L161.687456,7 C156.339173,7 152,11.306108 152,16.6136364 L152,44.3863636 C152,49.693892 156.339173,54 161.687456,54 L189.673441,54 Z M207.971969,20.8863636 L211.066573,17.8153409 C212.311142,16.5802557 212.311142,14.5106534 211.066573,13.2755682 L205.953749,8.20170455 C204.70918,6.96661932 202.623686,6.96661932 201.379117,8.20170455 L198.284513,11.2727273 L207.971969,20.8863636 Z M183.215137,45.4545455 L205.819201,23.0227273 L196.131745,13.4090909 L173.52768,35.8409091 L173.52768,45.4545455 L183.215137,45.4545455 Z M183.753329,31.0340909 C183.450596,30.7336648 183.484233,30.2329545 183.786966,29.9325284 L195.559916,18.2492898 C195.862649,17.9488636 196.367204,17.915483 196.669937,18.2159091 C196.97267,18.5163352 196.939033,19.0170455 196.6363,19.3174716 L184.86335,31.0007102 C184.560617,31.3011364 184.056062,31.334517 183.753329,31.0340909 Z M181.869657,42.25 L179.985985,42.25 L179.985985,39.0454545 L176.756833,39.0454545 L176.756833,37.1761364 L180.658725,33.3039773 L185.771549,38.3778409 L181.869657,42.25 Z" id=""></path>
                <path d="M30,60 C46.5625,60 60,46.5625 60,30 C60,13.4375 46.5625,0 30,0 C13.4375,0 0,13.4375 0,30 C0,46.5625 13.4375,60 30,60 Z M30,55 C16.2109375,55 5,43.7890625 5,30 C5,16.2109375 16.2109375,5 30,5 C43.7890625,5 55,16.2109375 55,30 C55,43.7890625 43.7890625,55 30,55 Z M33.125,37.5 C33.828125,37.5 34.375,36.953125 34.375,36.25 L34.375,35 C34.375,33.75 35.625,33.0078125 37.65625,31.8359375 C40.5078125,30.234375 44.375,28.046875 44.375,22.5 C44.375,15.703125 37.1875,10.625 30.78125,10.625 C24.84375,10.625 20.3515625,13.0859375 17.1484375,18.125 C16.796875,18.671875 16.9140625,19.4140625 17.421875,19.8046875 L21.640625,23.0078125 C21.8359375,23.1640625 22.109375,23.2421875 22.3828125,23.2421875 C22.7734375,23.2421875 23.125,23.0859375 23.359375,22.7734375 C24.8046875,20.9765625 25.625,20.1171875 26.484375,19.53125 C27.3828125,18.90625 28.828125,18.4765625 30.1953125,18.4765625 C32.7734375,18.4765625 35.625,20.15625 35.625,22.421875 C35.625,24.1796875 34.1796875,24.921875 31.8359375,26.015625 C29.0625,27.265625 25.625,28.7890625 25.625,33.59375 L25.625,36.25 C25.625,36.953125 26.171875,37.5 26.875,37.5 L33.125,37.5 Z M33.125,49.375 C33.828125,49.375 34.375,48.828125 34.375,48.125 L34.375,41.875 C34.375,41.171875 33.828125,40.625 33.125,40.625 L26.875,40.625 C26.171875,40.625 25.625,41.171875 25.625,41.875 L25.625,48.125 C25.625,48.828125 26.171875,49.375 26.875,49.375 L33.125,49.375 Z" id=""></path>
            </g>
        </g>
    </g>
</svg>