<?xml version="1.0" encoding="UTF-8"?>
<svg width="800px" height="600px" viewBox="0 0 800 600" version="1.1" xmlns="http://www.w3.org/2000/svg" xmlns:xlink="http://www.w3.org/1999/xlink">
    <title>Page Layout</title>
    <defs>
        <filter x="-1.2%" y="-16.9%" width="102.4%" height="133.8%" filterUnits="objectBoundingBox" id="filter-1">
            <feOffset dx="0" dy="1" in="SourceAlpha" result="shadowOffsetOuter1"></feOffset>
            <feGaussianBlur stdDeviation="3" in="shadowOffsetOuter1" result="shadowBlurOuter1"></feGaussianBlur>
            <feColorMatrix values="0 0 0 0 0.196078431   0 0 0 0 0.196078431   0 0 0 0 0.196078431  0 0 0 0.15 0" type="matrix" in="shadowBlurOuter1" result="shadowMatrixOuter1"></feColorMatrix>
            <feMerge>
                <feMergeNode in="shadowMatrixOuter1"></feMergeNode>
                <feMergeNode in="SourceGraphic"></feMergeNode>
            </feMerge>
        </filter>
    </defs>
    <g id="Page-Layout" stroke="none" stroke-width="1" fill="none" fill-rule="evenodd">
        <rect fill="#FFFFFF" x="0" y="0" width="800" height="600"></rect>
        <g id="Group-7" transform="translate(35.000000, 50.000000)">
            <g id="Group-5" opacity="0.5">
                <rect id="Rectangle" fill="#FAFAFA" x="0" y="0" width="1140" height="501"></rect>
                <g id="Group-3" transform="translate(24.000000, 313.000000)">
                    <rect id="Rectangle" fill="#EEEEEE" x="0" y="0" width="720" height="104"></rect>
                    <g id="Group-6" transform="translate(9.000000, 8.000000)">
                        <rect id="Rectangle-Copy-4" fill="#949494" x="0" y="0" width="293.630795" height="24" rx="4"></rect>
                        <rect id="Rectangle-Copy-7" fill="#949494" x="0" y="32" width="255.331126" height="8" rx="4"></rect>
                        <rect id="Rectangle-Copy-8" fill="#949494" x="0" y="48" width="208.907285" height="8" rx="4"></rect>
                        <rect id="Rectangle-Copy-9" fill="#F7D5DF" x="0" y="76" width="111.417219" height="8" rx="4"></rect>
                        <rect id="Rectangle-Copy-17" fill="#F7D5DF" x="139.271523" y="76" width="111.417219" height="8" rx="4"></rect>
                        <rect id="Rectangle-Copy-10" fill="#D4E5F0" x="547.801325" y="44" width="153.198675" height="24" rx="4"></rect>
                        <rect id="Rectangle-Copy-6" fill="#AFAFAF" x="595.385762" y="0" width="105.614238" height="8" rx="4"></rect>
                        <rect id="Rectangle-Copy-6" fill="#AFAFAF" x="538.516556" y="20" width="162.483444" height="8" rx="4"></rect>
                    </g>
                </g>
                <g id="Background-and-Border" filter="url(#filter-1)">
                    <rect id="Header" fill="#FFFFFF" x="0" y="0" width="1140" height="80"></rect>
                    <rect id="Rectangle" fill="#DCDCDC" x="0" y="78.6666667" width="1140" height="1.33333333"></rect>
                </g>
                <rect id="Rectangle" fill="#DCDCDC" x="24" y="18" width="190" height="44"></rect>
                <g id="Group" transform="translate(246.000000, 32.000000)" fill="#AFAFAF">
                    <rect id="Rectangle-Copy" x="0" y="0" width="200" height="16" rx="4"></rect>
                    <rect id="Rectangle-Copy-2" x="224" y="0" width="118" height="16" rx="4"></rect>
                </g>
                <rect id="Rectangle-Copy-3" fill="#D4E5F0" x="24" y="113" width="118" height="24" rx="4"></rect>
                <rect id="Rectangle-Copy-3" fill="#F7D5DF" x="24" y="453" width="557" height="12" rx="4"></rect>
                <g id="Group-2" transform="translate(24.000000, 173.000000)">
                    <rect id="Rectangle" fill="#EEEEEE" x="0" y="0" width="960" height="104"></rect>
                    <g id="Group-6" transform="translate(12.000000, 8.000000)">
                        <rect id="Rectangle-Copy-4" fill="#949494" x="0" y="0" width="391.647351" height="24" rx="4"></rect>
                        <rect id="Rectangle-Copy-7" fill="#949494" x="0" y="32" width="340.562914" height="8" rx="4"></rect>
                        <rect id="Rectangle-Copy-8" fill="#949494" x="0" y="48" width="278.642384" height="8" rx="4"></rect>
                        <rect id="Rectangle-Copy-9" fill="#949494" x="0" y="72" width="278.642384" height="8" rx="4"></rect>
                        <rect id="Rectangle-Copy-5" fill="#767676" x="727.566225" y="16" width="207.433775" height="24" rx="4"></rect>
                    </g>
                </g>
            </g>
            <path id="Line" d="M535.498262,15.6643813 L535.686134,15.7636979 L571.686134,36.0136979 C574.342954,37.5081592 574.403336,41.2804009 571.867281,42.8783977 L571.686134,42.9863021 L535.686134,63.2363021 C533.760702,64.3193574 531.321842,63.6364765 530.238787,61.711045 C529.190669,59.8477241 529.796393,57.5035646 531.581608,56.3726794 L531.764044,56.2636979 L554.455,43.5 L47.475089,43.5 C45.26595,43.5 43.475089,41.709139 43.475089,39.5 C43.475089,37.3578046 45.1590574,35.6089211 47.2754486,35.5048953 L47.475089,35.5 L554.455,35.5 L531.764044,22.7363021 C529.900723,21.6881842 529.201081,19.3703216 530.13947,17.4768272 L530.238787,17.288955 C531.286905,15.4256342 533.604767,14.7259924 535.498262,15.6643813 Z" fill="#FF3370" fill-rule="nonzero"></path>
            <path id="Line" d="M375.529404,172.103493 L375.717144,172.203061 L411.690005,192.501232 C414.344822,193.999249 414.400155,197.771568 411.861962,199.366169 L411.680671,199.47383 L375.653597,219.675623 C373.726717,220.7561 371.288773,220.069955 370.208296,218.143075 C369.162674,216.278353 369.771535,213.935006 371.558263,212.806512 L371.740844,212.697775 L394.447,199.964 L373.724889,199.936721 L47.4692649,199.499996 C45.2601279,199.497039 43.4716657,197.703783 43.4746229,195.494646 C43.47758,193.285509 45.2708367,191.497046 47.4799737,191.500004 L373.735598,191.936728 L394.458,191.964 L371.785724,179.170409 C369.923807,178.119798 369.227269,175.801001 370.168192,173.908764 L370.26776,173.721025 C371.318371,171.859109 373.637168,171.16257 375.529404,172.103493 Z" fill="#FF3370" fill-rule="nonzero"></path>
            <path id="Line" d="M47,35 C49.1421954,35 50.8910789,36.6839685 50.9951047,38.8003597 L51,39 L51,179.979 L63.7636979,157.288955 C64.8467531,155.363524 67.2856134,154.680643 69.211045,155.763698 C71.0743658,156.811816 71.7740076,159.129678 70.8356187,161.023173 L70.7363021,161.211045 L50.4863021,197.211045 C48.9918408,199.867865 45.2195991,199.928247 43.6216023,197.392192 L43.5136979,197.211045 L23.2636979,161.211045 C22.1806426,159.285613 22.8635235,156.846753 24.788955,155.763698 C26.6522759,154.71558 28.9964354,155.321304 30.1273206,157.106519 L30.2363021,157.288955 L43,179.979 L43,39 C43,36.790861 44.790861,35 47,35 Z" fill="#FF3370" fill-rule="nonzero"></path>
            <path id="Line" d="M255.529512,309.942862 L255.717251,310.04243 L291.690112,330.340601 C294.34493,331.838617 294.400262,335.610936 291.86207,337.205537 L291.680779,337.313199 L255.653704,357.514991 C253.726825,358.595468 251.288881,357.909323 250.208404,355.982444 C249.162781,354.117722 249.771643,351.774375 251.55837,350.64588 L251.740951,350.537143 L274.449,337.804 L253.724997,337.77609 L47.4692649,337.499996 C45.2601279,337.497039 43.4716657,335.703783 43.4746229,333.494646 C43.47758,331.285509 45.2708367,329.497046 47.4799737,329.500004 L253.735705,329.776097 L274.46,329.804 L251.785831,317.009778 C249.923915,315.959166 249.227377,313.640369 250.168299,311.748133 L250.267867,311.560394 C251.318478,309.698477 253.637275,309.001939 255.529512,309.942862 Z" fill="#FF3370" fill-rule="nonzero"></path>
            <path id="Line" d="M47,192 C49.1421954,192 50.8910789,193.683968 50.9951047,195.80036 L51,196 L51,313.979 L63.7636979,291.288955 C64.8467531,289.363524 67.2856134,288.680643 69.211045,289.763698 C71.0743658,290.811816 71.7740076,293.129678 70.8356187,295.023173 L70.7363021,295.211045 L50.4863021,331.211045 C48.9918408,333.867865 45.2195991,333.928247 43.6216023,331.392192 L43.5136979,331.211045 L23.2636979,295.211045 C22.1806426,293.285613 22.8635235,290.846753 24.788955,289.763698 C26.6522759,288.71558 28.9964354,289.321304 30.1273206,291.106519 L30.2363021,291.288955 L43,313.979 L43,196 C43,193.790861 44.790861,192 47,192 Z" fill="#FF3370" fill-rule="nonzero"></path>
            <path id="Line" d="M47,321 C49.1421954,321 50.8910789,322.683968 50.9951047,324.80036 L51,325 L51,442.979 L63.7636979,420.288955 C64.8467531,418.363524 67.2856134,417.680643 69.211045,418.763698 C71.0743658,419.811816 71.7740076,422.129678 70.8356187,424.023173 L70.7363021,424.211045 L50.4863021,460.211045 C48.9918408,462.867865 45.2195991,462.928247 43.6216023,460.392192 L43.5136979,460.211045 L23.2636979,424.211045 C22.1806426,422.285613 22.8635235,419.846753 24.788955,418.763698 C26.6522759,417.71558 28.9964354,418.321304 30.1273206,420.106519 L30.2363021,420.288955 L43,442.979 L43,325 C43,322.790861 44.790861,321 47,321 Z" fill="#FF3370" fill-rule="nonzero"></path>
        </g>
    </g>
</svg>