<?xml version="1.0" encoding="UTF-8"?>
<svg width="800px" height="600px" viewBox="0 0 800 600" version="1.1" xmlns="http://www.w3.org/2000/svg" xmlns:xlink="http://www.w3.org/1999/xlink">
    <title>Page Header</title>
    <defs>
        <filter x="-1.9%" y="-26.9%" width="103.8%" height="153.8%" filterUnits="objectBoundingBox" id="filter-1">
            <feOffset dx="0" dy="1" in="SourceAlpha" result="shadowOffsetOuter1"></feOffset>
            <feGaussianBlur stdDeviation="3" in="shadowOffsetOuter1" result="shadowBlurOuter1"></feGaussianBlur>
            <feColorMatrix values="0 0 0 0 0.196078431   0 0 0 0 0.196078431   0 0 0 0 0.196078431  0 0 0 0.15 0" type="matrix" in="shadowBlurOuter1" result="shadowMatrixOuter1"></feColorMatrix>
            <feMerge>
                <feMergeNode in="shadowMatrixOuter1"></feMergeNode>
                <feMergeNode in="SourceGraphic"></feMergeNode>
            </feMerge>
        </filter>
    </defs>
    <g id="Page-Header" stroke="none" stroke-width="1" fill="none" fill-rule="evenodd">
        <rect fill="#FFFFFF" x="0" y="0" width="800" height="600"></rect>
        <g id="Group-7" transform="translate(35.000000, 50.000000)" opacity="0.5">
            <g id="Group-5">
                <rect id="Rectangle" fill="#FAFAFA" x="0" y="0" width="1140" height="501"></rect>
                <g id="Group-3" transform="translate(24.000000, 313.000000)">
                    <rect id="Rectangle" fill="#EEEEEE" x="0" y="0" width="720" height="104"></rect>
                    <g id="Group-6" transform="translate(9.000000, 8.000000)">
                        <rect id="Rectangle-Copy-4" fill="#949494" x="0" y="0" width="293.630795" height="24" rx="4"></rect>
                        <rect id="Rectangle-Copy-7" fill="#949494" x="0" y="32" width="255.331126" height="8" rx="4"></rect>
                        <rect id="Rectangle-Copy-8" fill="#949494" x="0" y="48" width="208.907285" height="8" rx="4"></rect>
                        <rect id="Rectangle-Copy-9" fill="#F7D5DF" x="0" y="76" width="111.417219" height="8" rx="4"></rect>
                        <rect id="Rectangle-Copy-17" fill="#F7D5DF" x="139.271523" y="76" width="111.417219" height="8" rx="4"></rect>
                        <rect id="Rectangle-Copy-10" fill="#D4E5F0" x="547.801325" y="44" width="153.198675" height="24" rx="4"></rect>
                        <rect id="Rectangle-Copy-6" fill="#AFAFAF" x="595.385762" y="0" width="105.614238" height="8" rx="4"></rect>
                        <rect id="Rectangle-Copy-6" fill="#AFAFAF" x="538.516556" y="20" width="162.483444" height="8" rx="4"></rect>
                    </g>
                </g>
                <g id="Background-and-Border" filter="url(#filter-1)">
                    <rect id="Header" stroke="#FF3370" stroke-width="8" fill="#FFFFFF" stroke-linejoin="round" x="-4" y="-4" width="1148" height="88"></rect>
                    <rect id="Rectangle" fill="#DCDCDC" x="0" y="78.6666667" width="1140" height="1.33333333"></rect>
                </g>
                <rect id="Rectangle" fill="#DCDCDC" x="24" y="18" width="190" height="44"></rect>
                <g id="Group" transform="translate(246.000000, 32.000000)" fill="#AFAFAF">
                    <rect id="Rectangle-Copy" x="0" y="0" width="200" height="16" rx="4"></rect>
                    <rect id="Rectangle-Copy-2" x="224" y="0" width="118" height="16" rx="4"></rect>
                </g>
                <rect id="Rectangle-Copy-3" fill="#D4E5F0" x="24" y="113" width="118" height="24" rx="4"></rect>
                <rect id="Rectangle-Copy-3" fill="#F7D5DF" x="24" y="453" width="557" height="12" rx="4"></rect>
                <g id="Group-2" transform="translate(24.000000, 173.000000)">
                    <rect id="Rectangle" fill="#EEEEEE" x="0" y="0" width="960" height="104"></rect>
                    <g id="Group-6" transform="translate(12.000000, 8.000000)">
                        <rect id="Rectangle-Copy-4" fill="#949494" x="0" y="0" width="391.647351" height="24" rx="4"></rect>
                        <rect id="Rectangle-Copy-7" fill="#949494" x="0" y="32" width="340.562914" height="8" rx="4"></rect>
                        <rect id="Rectangle-Copy-8" fill="#949494" x="0" y="48" width="278.642384" height="8" rx="4"></rect>
                        <rect id="Rectangle-Copy-9" fill="#949494" x="0" y="72" width="278.642384" height="8" rx="4"></rect>
                        <rect id="Rectangle-Copy-5" fill="#767676" x="727.566225" y="16" width="207.433775" height="24" rx="4"></rect>
                    </g>
                </g>
            </g>
        </g>
    </g>
</svg>